<svg id="Layer_1" data-name="Layer 1" xmlns="http://www.w3.org/2000/svg" viewBox="0 0 24 24"><defs><style>.cls-1{fill:#fff;}.cls-2{fill:#3cc;}</style></defs><title>electricity</title><circle class="cls-2" cx="12" cy="12" r="11"/><g transform="translate(1,1) scale(0.916,0.916)"><rect class="cls-1" x="10.9" y="11.34" width="2" height="11"/><path class="cls-1" d="M16.33,8.87v1.7c0,1.59-1.44,2.63-4.33,2.63s-4.33-1-4.33-2.63V8.87h8.67Z"/><path class="cls-1" d="M8.78,5.62h1.93V2.77a1,1,0,0,0-1-1h0a1,1,0,0,0-1,1V5.62Z"/><path class="cls-1" d="M13.29,5.62h1.93V2.77a1,1,0,0,0-1-1h0a1,1,0,0,0-1,1V5.62Z"/><rect class="cls-1" x="6.93" y="6.19" width="10.15" height="1.93" rx="0.72" ry="0.72"/></g></svg>