<svg id="Layer_1" data-name="Layer 1" xmlns="http://www.w3.org/2000/svg" viewBox="0 0 24 24"><defs><style>.cls-1{fill:#fff;}.cls-2{fill:#c69;}</style></defs><title>oil_products</title><circle class="cls-2" cx="12" cy="12" r="11"/><g transform="translate(2,1) scale(0.916,0.916)"><path class="cls-1" d="M13.73,2.7H7.88a1.5,1.5,0,0,0-1.5,1.5V18.78h8.84V4.19A1.5,1.5,0,0,0,13.73,2.7ZM14,10.52H8v-6h6v6Z" transform="translate(0 0)"/><rect class="cls-1" x="5.78" y="20.34" width="10.05" height="1.13"/><path class="cls-1" d="M17.31,10.75c-0.11-.42-0.21-0.86-0.22-0.95a2.28,2.28,0,0,1,.52-1.25L16.85,6.63,15,5v0.7l1,0.88V8.57h1a2.94,2.94,0,0,0-.42,1.22,5.5,5.5,0,0,0,.21,1.09c0.23,0.93.57,2.34,0.75,3.64,0.27,1.87.06,2.59-.16,2.87a0.46,0.46,0,0,1-.4.18,0.61,0.61,0,0,1-.48-0.2c-0.59-.64-0.44-2.63-0.33-4.09s-0.06-2.24-.34-2.51a1.1,1.1,0,0,0-.75-0.18s0.17,0.63.16,0.62c0.5,0,.42,1.22.36,2-0.13,1.74-.28,3.71.48,4.53a1.18,1.18,0,0,0,.9.38,1,1,0,0,0,.85-0.41C18.64,16.7,18.06,13.77,17.31,10.75Z" transform="translate(0 0)"/></g></svg>