<svg id="Layer_1" data-name="Layer 1" xmlns="http://www.w3.org/2000/svg" viewBox="0 0 24 24"><defs><style>.cls-1{fill:#fff;}.cls-2{fill:#349946;}</style></defs><title>solarWindGeo</title><circle class="cls-2" cx="12" cy="12" r="11"/><g transform="translate(1,1) scale(0.916,0.916)"><circle class="cls-1" cx="6.41" cy="6.83" r="2.21"/><polygon class="cls-2" points="10.94 6.83 6.44 8.11 1.94 6.83 6.44 5.54 10.94 6.83"/><polygon class="cls-1" points="6.44 2.32 7.73 6.83 6.44 11.33 5.15 6.83 6.44 2.32"/><polygon class="cls-1" points="9.62 3.64 7.35 7.74 3.25 10.01 5.53 5.92 9.62 3.64"/><polygon class="cls-1" points="3.25 3.64 7.35 5.92 9.62 10.01 5.53 7.74 3.25 3.64"/><path class="cls-1" d="M15.51,7.86l-4.2-4.75,1.84,6.07-2,6,4.31-4.69,6.22-1.37ZM15,9.75A0.58,0.58,0,1,1,15.18,9,0.58,0.58,0,0,1,15,9.75Z" transform="translate(0 0)"/><polygon class="cls-1" points="13.95 21.6 16 21.6 15.63 11.44 14.32 13.1 13.95 21.6"/></g></svg>