<svg id="Layer_1" data-name="Layer 1" xmlns="http://www.w3.org/2000/svg" viewBox="0 0 24 24"><defs><style>.cls-1{fill:#fff;}.cls-2{fill:none;stroke:#999;stroke-miterlimit:10;}.cls-3{fill:#999;}</style></defs><title>NS_Unavailable</title><rect class="cls-1" width="24" height="24"/><line class="cls-2" x1="1" y1="1" x2="23" y2="23"/><rect class="cls-1" x="1" y="6.5" width="22" height="11"/><path class="cls-3" d="M23,1V23H1V1H23m1-1H0V24H24V0h0Z"/><path class="cls-3" d="M10.14,16.25l-2.41-6h0l0,6H6.42V7.75H8.06l2.39,6h0v-6h1.25v8.5H10.14Z"/><path class="cls-3" d="M16.79,9.4a1.47,1.47,0,0,0-1.18-.56,1.21,1.21,0,0,0-.4.07,1,1,0,0,0-.35.21,1,1,0,0,0-.25.37,1.45,1.45,0,0,0-.09.54,1.07,1.07,0,0,0,.32.83,3.81,3.81,0,0,0,.85.56,7.11,7.11,0,0,1,.64.36,2.87,2.87,0,0,1,.59.49,2.3,2.3,0,0,1,.6,1.62,2.88,2.88,0,0,1-.2,1.1,2.45,2.45,0,0,1-.53.81,2.14,2.14,0,0,1-.77.5,2.62,2.62,0,0,1-.94.17,3.1,3.1,0,0,1-1.31-.28,2.76,2.76,0,0,1-1-.7l0.78-1.06a2,2,0,0,0,.67.53,1.79,1.79,0,0,0,.8.19,1,1,0,0,0,.76-0.31,1.22,1.22,0,0,0,.3-0.88,1.12,1.12,0,0,0-.36-0.88,4.07,4.07,0,0,0-.91-0.6,5.56,5.56,0,0,1-.65-0.37,2.49,2.49,0,0,1-.54-0.49A2.2,2.2,0,0,1,13.29,11a2.65,2.65,0,0,1-.14-0.91,2.78,2.78,0,0,1,.21-1.13,2.31,2.31,0,0,1,.55-0.79,2.2,2.2,0,0,1,.77-0.46,2.64,2.64,0,0,1,.88-0.15,3,3,0,0,1,1.16.21,2.22,2.22,0,0,1,.86.62Z"/></svg>