<svg id="Layer_1" data-name="Layer 1" xmlns="http://www.w3.org/2000/svg" viewBox="0 0 24 24"><defs><style>.cls-1{fill:#fff;}.cls-2{fill:none;stroke:#999;stroke-miterlimit:10;}.cls-3{fill:#999;}</style></defs><title>ON_Unavailable</title><rect class="cls-1" x="0.5" y="0.5" width="23" height="23"/><line class="cls-2" x1="1" y1="1" x2="23" y2="23"/><rect class="cls-1" x="1" y="6.5" width="22" height="11"/><path class="cls-3" d="M23,1V23H1V1H23m1-1H0V24H24V0h0Z"/><path class="cls-3" d="M11.74,12a7.28,7.28,0,0,1-.21,1.8,4.43,4.43,0,0,1-.6,1.39,2.83,2.83,0,0,1-1,.9,2.65,2.65,0,0,1-2.52,0,2.85,2.85,0,0,1-.95-0.9,4.43,4.43,0,0,1-.6-1.39A7.26,7.26,0,0,1,5.71,12a7.39,7.39,0,0,1,.2-1.8A4.32,4.32,0,0,1,6.5,8.82a2.78,2.78,0,0,1,1-.89,2.71,2.71,0,0,1,2.53,0,2.78,2.78,0,0,1,1,.89,4.43,4.43,0,0,1,.6,1.38A7.21,7.21,0,0,1,11.74,12Zm-1.47,0a6.81,6.81,0,0,0-.1-1.2,3.84,3.84,0,0,0-.3-1,1.84,1.84,0,0,0-.48-0.64A1.09,1.09,0,0,0,8,9.18a1.83,1.83,0,0,0-.48.64,3.67,3.67,0,0,0-.29,1,7.64,7.64,0,0,0,0,2.4,3.75,3.75,0,0,0,.29,1,1.82,1.82,0,0,0,.48.65,1.1,1.1,0,0,0,1.36,0,1.82,1.82,0,0,0,.48-0.65,3.75,3.75,0,0,0,.29-1A7.22,7.22,0,0,0,10.27,12Z"/><path class="cls-3" d="M16.73,16.18l-2.37-5.91h0v5.91h-1.3V7.82h1.62L17,13.76h0V7.82h1.23v8.37h-1.5Z"/></svg>