<svg id="Layer_1" data-name="Layer 1" xmlns="http://www.w3.org/2000/svg" viewBox="0 0 40 40"><defs><style>.cls-1{fill:#fff;}.cls-2{fill:#333;}</style></defs><title>commercial_unselected</title><rect class="cls-1" x="0.5" y="0.5" width="39" height="39"/><path class="cls-2" d="M39,1V39H1V1H39m1-1H0V40H40V0h0Z"/><path class="cls-2" d="M23.92,14V4H16.2V20.31H9.35V36H30.65V14H23.92ZM19.64,7.77h-2v-2h2v2Zm3.14,0h-2v-2h2v2Zm-3.14,3.13h-2v-2h2v2Zm3.14,0h-2v-2h2v2ZM19.64,14h-2V12h2v2Zm3.14,0h-2V12h2v2Zm-3.14,3.13h-2v-2h2v2Zm3.14,0h-2v-2h2v2Zm3.6,0h-2v-2h2v2Zm3.14,0h-2v-2h2v2Zm-9.88,3.13h-2v-2h2v2Zm3.14,0h-2v-2h2v2Zm-3.14,3.13h-2v-2h2v2Zm3.14,0h-2v-2h2v2Zm3.6-3.13h-2v-2h2v2Zm3.14,0h-2v-2h2v2Zm-3.14,3.13h-2v-2h2v2Zm3.14,0h-2v-2h2v2Zm-16.62,0h-2v-2h2v2Zm3.14,0H14v-2h2v2Zm3.6,3.13h-2v-2h2v2Zm3.14,0h-2v-2h2v2Zm-3.14,3.13h-2v-2h2v2Zm3.14,0h-2v-2h2v2Zm3.6-3.13h-2v-2h2v2Zm3.14,0h-2v-2h2v2Zm-3.14,3.13h-2v-2h2v2Zm3.14,0h-2v-2h2v2ZM12.9,26.58h-2v-2h2v2Zm3.14,0H14v-2h2v2ZM12.9,29.71h-2v-2h2v2Zm3.14,0H14v-2h2v2Zm3.6,3.15h-2v-2h2v2Zm3.14,0h-2v-2h2v2Zm3.6,0h-2v-2h2v2Zm3.14,0h-2v-2h2v2Zm-16.62,0h-2v-2h2v2Zm3.14,0H14v-2h2v2Z"/></svg>