<svg id="Layer_1" data-name="Layer 1" xmlns="http://www.w3.org/2000/svg" viewBox="0 0 40 40"><defs><style>.cls-1{fill:#333;}.cls-2{fill:#fff;}</style></defs><title>industrial_selected</title><rect class="cls-1" x="0.5" y="0.5" width="39" height="39"/><path class="cls-1" d="M39,1V39H1V1H39m1-1H0V40H40V0h0Z"/><path class="cls-2" d="M27.65,19.4V15.61l-9,3.79V15.61l-8,4.25V4.79h-5v30h29V15.61Zm-13,8.39h-4v-4h4v4Zm0-5h-4v-1h4v1Zm6,5h-4v-4h4v4Zm0-5h-4v-1h4v1Zm6,5h-4v-4h4v4Zm0-5h-4v-1h4v1Zm6,5h-4v-4h4v4Zm0-5h-4v-1h4v1Z"/></svg>