<svg id="Layer_1" data-name="Layer 1" xmlns="http://www.w3.org/2000/svg" viewBox="0 0 88 20"><defs><style>.cls-1{fill:#333;}.cls-2{fill:#fff;}</style></defs><title>totalDemand_selected</title><rect class="cls-1" width="88" height="20"/><path class="cls-2" d="M11.18,6.84v7.6H9.7V6.84H8V5.56h4.82V6.84H11.18Z"/><path class="cls-2" d="M19.59,10a7.78,7.78,0,0,1-.22,1.91,4.72,4.72,0,0,1-.63,1.47,3,3,0,0,1-1,1,2.82,2.82,0,0,1-2.68,0,3,3,0,0,1-1-1,4.69,4.69,0,0,1-.63-1.47A7.73,7.73,0,0,1,13.19,10a7.85,7.85,0,0,1,.21-1.91A4.62,4.62,0,0,1,14,6.61a2.94,2.94,0,0,1,1-.95,2.87,2.87,0,0,1,2.68,0,3,3,0,0,1,1,.95,4.72,4.72,0,0,1,.63,1.47A7.69,7.69,0,0,1,19.59,10ZM18,10a7.2,7.2,0,0,0-.11-1.27,4.06,4.06,0,0,0-.31-1A2,2,0,0,0,17.1,7a1.09,1.09,0,0,0-.71-0.25,1.11,1.11,0,0,0-.72.25,2,2,0,0,0-.51.68,3.91,3.91,0,0,0-.31,1,8.18,8.18,0,0,0,0,2.55,4,4,0,0,0,.31,1,1.93,1.93,0,0,0,.51.69,1.16,1.16,0,0,0,1.44,0,1.93,1.93,0,0,0,.51-0.69,4,4,0,0,0,.31-1A7.72,7.72,0,0,0,18,10Z"/><path class="cls-2" d="M22.84,6.84v7.6H21.36V6.84H19.69V5.56H24.5V6.84H22.84Z"/><path class="cls-2" d="M29,14.44l-0.44-1.88H26.24l-0.45,1.88h-1.5l2.21-8.88h1.92l2.17,8.88H29ZM27.44,7h0l-1,4.4h2Z"/><path class="cls-2" d="M31.51,14.44V5.56H33V13h2.45v1.39h-4Z"/><path class="cls-2" d="M44.3,10a5.29,5.29,0,0,1-.88,3.27,3.07,3.07,0,0,1-2.6,1.16H38.59V5.56h2.23a3,3,0,0,1,2.59,1.17A5.35,5.35,0,0,1,44.3,10Zm-1.5,0a5.88,5.88,0,0,0-.14-1.38,3,3,0,0,0-.41-1,1.77,1.77,0,0,0-.63-0.58,1.65,1.65,0,0,0-.79-0.19H40.11v6.25h0.72a1.65,1.65,0,0,0,.79-0.19,1.77,1.77,0,0,0,.63-0.58,3,3,0,0,0,.41-1A5.73,5.73,0,0,0,42.8,10Z"/><path class="cls-2" d="M45.73,14.44V5.56h4V6.89H47.17V9.25h2.35v1.23H47.17V13.1h2.66v1.34h-4.1Z"/><path class="cls-2" d="M57.3,14.44l0-6.83h0L55.5,14.44H54.33L52.58,7.62h0l0,6.83H51.2V5.56h2l1.71,6.5H55l1.67-6.5h2.12v8.88H57.3Z"/><path class="cls-2" d="M64.41,14.44L64,12.56H61.64l-0.45,1.88h-1.5l2.21-8.88h1.92L66,14.44H64.41ZM62.84,7h0l-1,4.4h2Z"/><path class="cls-2" d="M70.8,14.44L68.27,8.17h0l0,6.27H66.91V5.56h1.72l2.5,6.31h0V5.56h1.3v8.88H70.8Z"/><path class="cls-2" d="M80,10a5.29,5.29,0,0,1-.88,3.27,3.07,3.07,0,0,1-2.6,1.16H74.26V5.56h2.23a3,3,0,0,1,2.59,1.17A5.35,5.35,0,0,1,80,10Zm-1.5,0a5.88,5.88,0,0,0-.14-1.38,3,3,0,0,0-.41-1,1.77,1.77,0,0,0-.63-0.58,1.65,1.65,0,0,0-.79-0.19H75.78v6.25h0.72a1.65,1.65,0,0,0,.79-0.19,1.77,1.77,0,0,0,.63-0.58,3,3,0,0,0,.41-1A5.73,5.73,0,0,0,78.46,10Z"/></svg>