<svg id="Layer_1" data-name="Layer 1" xmlns="http://www.w3.org/2000/svg" viewBox="0 0 40 40"><defs><style>.cls-1{fill:#333;}.cls-2{fill:#fff;}</style></defs><title>transport_selected</title><rect class="cls-1" x="0.55" y="0.55" width="39" height="39"/><path class="cls-1" d="M39,1V39H1V1H39m1-1H0V40H40V0h0Z"/><circle class="cls-2" cx="9.84" cy="28.14" r="2.48"/><circle class="cls-2" cx="31.1" cy="28.14" r="2.48"/><path class="cls-2" d="M35.79,22.37s-3.07-5.72-4.16-6.61c-0.44-.35-0.46-0.38-1.73-0.38H26v12h1.95a3.24,3.24,0,0,1,6.3,0H36v-4A2,2,0,0,0,35.79,22.37Zm-1.43,0H28v-6h1.36c1.27,0,1.54,0,1.91.47a34.33,34.33,0,0,1,3.1,5.43C34.4,22.34,34.38,22.37,34.36,22.37Z"/><path class="cls-2" d="M4,9.38v18H6.69a3.24,3.24,0,0,1,6.3,0H25v-18H4Z"/></svg>