<?xml version="1.0" encoding="UTF-8" standalone="no"?>
<!-- Generator: Adobe Illustrator 14.0.0, SVG Export Plug-In . SVG Version: 6.00 Build 43363)  -->
<svg
   xmlns:dc="http://purl.org/dc/elements/1.1/"
   xmlns:cc="http://creativecommons.org/ns#"
   xmlns:rdf="http://www.w3.org/1999/02/22-rdf-syntax-ns#"
   xmlns:svg="http://www.w3.org/2000/svg"
   xmlns="http://www.w3.org/2000/svg"
   xmlns:sodipodi="http://sodipodi.sourceforge.net/DTD/sodipodi-0.dtd"
   xmlns:inkscape="http://www.inkscape.org/namespaces/inkscape"
   version="1.1"
   id="svg2"
   sodipodi:version="0.32"
   inkscape:version="0.46"
   sodipodi:docname="H1N1_Canada_map.svg"
   inkscape:output_extension="org.inkscape.output.svg.inkscape"
   x="0px"
   y="0px"
   width="977.953px"
   height="949.606px"
   viewBox="0 0 977.953 949.606"
   enable-background="new 0 0 977.953 949.606"
   xml:space="preserve"><metadata
   id="metadata82"><rdf:RDF><cc:Work
       rdf:about=""><dc:format>image/svg+xml</dc:format><dc:type
         rdf:resource="http://purl.org/dc/dcmitype/StillImage" /></cc:Work></rdf:RDF></metadata>
<sodipodi:namedview
   id="base"
   inkscape:current-layer="svg2"
   inkscape:window-y="14"
   inkscape:window-x="0"
   inkscape:window-width="1264"
   inkscape:pageopacity="0.0"
   inkscape:pageshadow="2"
   inkscape:window-height="750"
   pagecolor="#ffffff"
   inkscape:cy="409.63616"
   bordercolor="#666666"
   borderopacity="1.0"
   inkscape:cx="492.10147"
   objecttolerance="10.0"
   gridtolerance="10.0"
   inkscape:zoom="1.1008632"
   guidetolerance="10.0"
   showgrid="false">
	</sodipodi:namedview>
<defs
   id="defs4">
	
	
		<inkscape:perspective
   id="perspective112"
   inkscape:persp3d-origin="611.22046 : 395.66931 : 1"
   inkscape:vp_z="1222.4409 : 593.50397 : 1"
   inkscape:vp_y="0 : 1000 : 0"
   inkscape:vp_x="0 : 593.50397 : 1"
   sodipodi:type="inkscape:persp3d">
		</inkscape:perspective>
</defs>

  <style
   type="text/css"
   id="style_css_sheet">
/*
 * Below are Cascading Style Sheet (CSS) definitions in use in this file,
 * which allow easily changing how states are displayed.
 * Modified from the world version of this map.
 */

 /* Basic colour */
 .zz
 {
	fill:  #C0C0C0; /* Netscape grey */ 
 }

 /* Unconfirmed cases */
 .xs 
 {
	fill:  #FFFF00; /* yellow */
 }

 /* Confirmed cases - unknown count*/
 .xu
 {
	fill:  #FF00FF; /* magenta */
 }

 /* 1+ cases */
 .x1, .NFLD, .PEI, .NB, .YK, .NWT
 {
	fill:  #ff5555; 
 }

 /* 100+ cases */
 .x100, .BC, .NS, .NU
 {
	fill:  #d40000; 
 }

 /* 500+ cases */
 .x500, .SASK, .ALTA, .MAN, .QUE
 {
	fill:  #aa0000; 
 }

 /* 2000+ cases */
 .x2000, .ONT
 {
	fill:  #550000; 
 }

/*
 * land
 */
.landxx
{
   fill: #b9b9b9;
   fill-opacity: 1;
   stroke:white;
   stroke-opacity: 1;
   stroke-width:0.5;
   stroke-miterlimit: 3.97446823;
   stroke-dasharray: none;
}

/*
 * Styles for coastlines of islands with no borders
 */
.coastxx
{
   stroke-width: 0.3;
}

/*
 * Sea
 */

.ocean
{
   opacity: 1;
   color: #000000;
   fill:white;
   fill-opacity:1;
   fill-rule:nonzero;
   stroke:#000000;
   stroke-width:0.5;
   stroke-linecap:butt;
   stroke-linejoin:miter;
   marker:none;
   marker-start:none;
   marker-mid:none;
   marker-end:none;
   stroke-miterlimit:1;
   stroke-dasharray:none;
   stroke-dashoffset:0;
   stroke-opacity:1;
   visibility:visible;
   display:inline;
   overflow:visible;
}

.lake
{
   fill:white;
   fill-opacity:1;
   stroke:#1821de;
   stroke-opacity: 1;
   stroke-width:0.3;
   stroke-miterlimit: 3.97446823;
   stroke-dasharray: none;
}

</style>

<!--CA-->
<g
   id="Canada"
   class="CAN" transform="rotate(-15 488.9765 474.803)"> <!-- Canada -->

<!-- NL -->
  <g
   id="NewfoundlandLabrador"
   class="NFLD"
   style="fill:#C0C0C0;fill-opacity:1"> <!-- Newfoundland and Labrador -->

<!-- NL - Labrador -->
    <path
   id="Labrador"
   class="NFLD"
   d="M792.537,699.506   c-1.902-0.826-5.712-1.502-8.467-1.502h-5.008l-0.654-4.088c-0.359-2.25-1.247-4.902-1.973-5.895   c-1.17-1.6-1.735-1.652-5.005-0.471c-2.027,0.732-4.151,1.045-4.72,0.693c-0.568-0.35-1.033-2.879-1.033-5.619   c0-4.77-0.209-5.133-4.906-8.508c-5.809-4.172-9.626-11.164-7.628-13.969c0.669-0.941,2.175-3.631,3.346-5.98   c1.17-2.348,3.052-5.104,4.182-6.127c1.979-1.791,2.242-1.791,7.265-0.008c5.154,1.83,5.245,1.826,8.193-0.354   c3.295-2.436,11.139-2.627,11.907-0.291c0.232,0.707-2.412,4.236-5.877,7.846c-5.802,6.041-6.168,6.689-4.637,8.221   c2.321,2.322,4.664,2.078,8.709-0.906c2.571-1.896,4.77-2.57,8.396-2.57c4.4,0,5.075-0.314,6.48-3.031   c1.566-3.029,2.079-7.42,0.992-8.506c-0.316-0.316-1.834,0.053-3.371,0.818c-3.131,1.563-7.358,0.91-7.358-1.135   c0-0.734,0.937-3.52,2.08-6.188c1.161-2.711,1.808-5.809,1.463-7.021c-0.975-3.432-6.555-14.014-10.397-19.717   c-3.037-4.506-3.656-6.523-4.578-14.9c-1.663-15.121-2.28-16.781-7.037-18.926c-4.055-1.83-5.944-4.605-4.607-6.77   c0.382-0.617,0.834-3.857,1.006-7.203l0.312-6.082h-4.466c-4.728,0-4.767-0.043-6.129-6.83c-0.356-1.779-1.528-4.029-2.604-5.002   c-2.173-1.967-5.545-11.096-4.837-13.094c0.266-0.75,4.193,2.338,9.479,7.455c13.14,12.719,15.952,15.605,20.823,21.373   c2.741,3.248,5.521,5.441,7.424,5.857c2.576,0.566,3.374,1.582,5.219,6.641c1.926,5.283,2.657,6.16,6.337,7.605l4.16,1.635   l-0.628,4.582c-0.966,7.039,0.793,10.713,6.249,13.051c2.538,1.088,6.706,2.506,9.262,3.148c2.555,0.645,6.213,2.545,8.128,4.227   c2.967,2.605,4.69,3.18,11.656,3.881c4.496,0.453,8.645,1.115,9.218,1.469c0.574,0.355,2.364-0.135,3.978-1.088   c2.756-1.629,3.259-1.627,8.225,0.023c2.909,0.965,5.289,2.156,5.289,2.646s-4.814,5.83-10.699,11.865   c-11.329,11.621-15.187,17.102-13.338,18.949c1.636,1.637,6.185-2.449,9.739-8.748c1.679-2.975,5.553-7.773,8.607-10.662   c5.896-5.578,7.206-5.801,11.481-1.961c1.688,1.516,3.032,1.814,5.815,1.291c3.038-0.568,4.688-0.047,10.266,3.252   c6.443,3.813,6.631,4.041,6.178,7.547c-0.389,3.02,0.226,4.537,3.709,9.176c2.296,3.055,4.45,6.422,4.786,7.482   c0.599,1.885-2.341,7.703-6.65,13.164l-2.026,2.568l-3.673-4.291l-3.673-4.291l-11.546,3.9c-6.351,2.146-18.714,6.682-27.476,10.08   s-19.826,7.408-24.588,8.91c-8.21,2.59-8.861,2.65-12.61,1.15c-6.119-2.449-6.794-2.152-7.5,3.301   c-1.183,9.117-1.364,9.51-4.395,9.465C797.258,701.025,794.438,700.332,792.537,699.506L792.537,699.506z"
   style="fill:#C0C0C0;fill-opacity:1" /> <!-- Newfoundland And Labrador - Mainland -->

<!-- NL - Newfoundland -->
    <path
   id="Newfoundland"
   d="M890.997,754.414   c-1.235-2.309-0.964-4.559,1.188-9.85c1.097-2.693,1.097-3.73,0-5.779c-1.003-1.873-1.054-3.027-0.204-4.615   c0.677-1.264,1.139-8.248,1.148-17.342c0.021-19.793,1.608-38.646,3.572-42.443c0.852-1.646,3.192-4.248,5.202-5.781   c3.434-2.619,3.758-2.682,5.396-1.047c1.957,1.955,2.348,11.965,0.97,24.795l-0.772,7.195l2.589-2.904   c2.128-2.387,3.128-2.785,5.622-2.238c2.444,0.537,3.16,1.35,3.693,4.189c0.844,4.494,2.638,4.551,13.792,0.439   c10.006-3.689,14.863-3.982,16.465-0.99c0.616,1.152,0.825,3.023,0.465,4.16c-1.018,3.205,1.291,5.051,6.32,5.051   c3.88,0,4.499,0.295,4.499,2.15c0,1.182-0.92,3.32-2.045,4.748c-1.383,1.76-1.854,3.473-1.455,5.301   c1.254,5.762,1.438,5.869,4.143,2.414c3.134-4.004,4.246-4.145,5.125-0.645c0.669,2.668,1.067,2.748,6.564,1.33   c1.261-0.324,1.596,1.143,1.84,8.041c0.26,7.357,0.029,8.705-1.799,10.533c-2.497,2.498-4.457,2.664-6.229,0.529   c-1.161-1.398-1.507-1.381-3.216,0.166c-1.053,0.951-2.154,1.492-2.447,1.199c-0.293-0.295-1.036-3.49-1.65-7.104   c-1.35-7.941-3.331-10.803-4.431-6.398c-0.4,1.602-1.777,4.301-3.061,5.996s-2.916,5.529-3.629,8.518   c-1.623,6.809-3.242,8.439-8.375,8.439c-3.631,0-3.965-0.203-3.066-1.883c0.555-1.035,1.728-2.479,2.605-3.209   c0.879-0.729,1.598-2.705,1.598-4.393c0-2.512-0.325-2.936-1.798-2.342c-0.989,0.398-3.602,0.98-5.806,1.293   c-2.203,0.313-6.978,2.117-10.608,4.01c-3.632,1.893-7.489,3.441-8.573,3.441s-6.254,1.615-11.487,3.59s-9.847,3.592-10.25,3.596   C892.489,756.58,891.636,755.607,890.997,754.414L890.997,754.414z"
   style="fill:#C0C0C0;fill-opacity:1" /> <!-- Newfoundland And Labrador - Newfoundland Island -->

<!-- NL -->
  </g> <!-- Newfoundland and Labrador -->

<!--NB-->
    <path
   id="NewBrunswick"
   class="NB"
   d="M802.447,832.167c-5.818-6.738-8.488-12.398-9.455-20.043  c-0.393-3.109-1.463-6.51-2.377-7.557c-2.16-2.473-6.658-4.775-9.325-4.775c-1.81,0-2.106-0.648-2.106-4.605  c0-5.004-0.146-4.9,8.488-6.057c2.125-0.285,5.217-1.48,6.869-2.658c4.772-3.398,11.425-5.387,15.772-4.715  c3.037,0.469,4.87,0.029,8.313-1.986c6.055-3.549,8.318-3.475,7.216,0.236c-1.417,4.768-0.76,9.916,1.942,15.225  c3.396,6.674,6.461,9.326,11.777,10.193c4.256,0.695,5.44,1.805,3.324,3.111c-0.575,0.355-3.286,3.967-6.026,8.025  c-5.198,7.701-13.473,16.117-15.845,16.117c-0.759,0-2.385,1.156-3.613,2.568c-1.653,1.902-3.254,2.57-6.156,2.57  C807.769,837.817,806.771,837.174,802.447,832.167L802.447,832.167z"
   style="fill:#C0C0C0;fill-opacity:1" /> <!-- New Brunswick -->

<!--PI-->
    <path
   id="PrinceEdwardIsland"
   class="PEI"
   d="M846.237,802.317c-4.101-0.75-8.379-1.656-9.507-2.014c-2.388-0.758-2.655-3.404-0.625-6.18  c1.379-1.887,1.541-1.859,5.06,0.824l3.635,2.771l7.016-1.477c3.858-0.813,8.339-1.797,9.956-2.189  c2.549-0.617,2.867-0.453,2.39,1.229c-0.304,1.066-0.854,3.443-1.224,5.279c-0.635,3.152-0.914,3.334-4.959,3.229  C855.621,803.729,850.338,803.067,846.237,802.317L846.237,802.317z"
   style="fill:#C0C0C0;fill-opacity:1" /> <!-- Prince Edward Island -->

<!-- NS -->
  <g
   id="NovaScotia"
   class="NS"
   style="fill:#C0C0C0;fill-opacity:1"> <!-- Nova Scotia -->

<!-- NS - Cape Breton Island -->
    <path
   id="CapeBreton"
   class="NS"
   d="M880.533,801.842c-2.045-2.262-3.719-4.689-3.72-5.395c-0.006-2.379,7.348-20.295,8.33-20.295  c1.228,0,2.978,4.51,2.978,7.674c0,1.658,1.121,3.063,3.621,4.537c1.992,1.176,3.879,2.807,4.193,3.627  c0.8,2.082-2.496,8.633-4.695,9.33c-1.001,0.318-2.646,1.49-3.656,2.607c-1.011,1.115-2.174,2.029-2.586,2.029  C884.587,805.958,882.577,804.106,880.533,801.842L880.533,801.842z"
   style="fill:#C0C0C0;fill-opacity:1" /> <!-- Nova Scotia - Cape Breton -->

<!-- NS - Acadian Peninsula -->
    <path
   id="AcadianPeninsula"
   class="NS"
   d="M830.88,861.25c-2.398-1.158-5.092-5.955-6.044-10.764c-1.059-5.35,9.853-19.65,20.191-26.459  c5.435-3.58,3.926-4.715-2.148-1.615c-2.357,1.203-4.575,1.898-4.928,1.547c-0.969-0.971,3.696-9.18,7.033-12.377  c2.538-2.432,4.141-2.93,11.619-3.611c4.771-0.434,9.623-1.297,10.779-1.916c2.749-1.471,9.675-1.439,12.963,0.059  c5.054,2.303,4.452,4.648-3.164,12.35c-3.875,3.918-8.934,8.326-11.242,9.795c-2.308,1.469-5.258,4.221-6.555,6.115  c-1.521,2.219-3.198,3.443-4.717,3.443c-1.817,0-2.643,0.883-3.604,3.854c-2.09,6.459-5.023,11.547-9.395,16.289  C837.395,862.596,835.109,863.293,830.88,861.25L830.88,861.25z"
   style="fill:#C0C0C0;fill-opacity:1" /> <!-- Nova Scotia - Acadian Peninsula -->

<!-- NS -->
  </g> <!-- Nova Scotia -->

<!-- PQ -->
  <g
   id="Quebec"
   class="QUE"
   style="fill:#C0C0C0;fill-opacity:1"
   transform="translate(1.3625671,-0.454189)"> <!-- Quebec -->

<!-- PQ - Anticosti -->
    <path
   id="QcAnticosti"
   class="QUE"
   d="M 824.799,742.442 C 820.778,740.917 817.424,739.323 817.348,738.899 C 816.976,736.831 817.443,736.225 820.334,735.028 C 827.807,731.932 852.151,736.647 852.151,741.188 C 852.151,742.672 851.11,743.196 847.269,743.649 C 833.089,745.319 832.268,745.274 824.799,742.442 z"
   style="fill:#C0C0C0;fill-opacity:1" /> <!-- Quebec - Anticosti Island -->

<!-- PQ - Mainland -->
    <path
   id="QcQuebec"
   class="QUE"
   d="M 710.02068,860.16801 C 709.57268,859.46101 708.50468,857.49601 707.64668,855.80101 C 705.57768,851.70901 702.72068,851.47101 695.54668,854.79301 C 688.15068,858.21901 680.77568,858.51601 677.50368,855.52201 C 673.94868,852.26801 667.14968,849.23301 659.60568,847.53601 C 650.55668,845.49901 647.23668,844.21201 643.01768,841.10401 C 636.85368,836.56301 635.92468,832.74901 630.99668,791.75201 C 628.50468,771.02001 626.19468,752.36501 625.86368,750.29701 C 625.35468,747.10801 625.58768,746.43201 627.39268,745.85901 C 628.83468,745.40001 629.53468,744.29301 629.55968,742.42501 C 629.57968,740.90901 630.25668,738.51301 631.06468,737.09901 C 633.27068,733.24001 632.99968,731.60901 628.08168,719.21401 C 625.59368,712.94101 623.23668,705.82701 622.84668,703.40501 C 622.45668,700.98301 621.08768,697.74701 619.80468,696.21201 C 618.52268,694.67701 617.12068,692.26501 616.69268,690.85301 C 616.26268,689.43901 615.39868,687.64201 614.76968,686.86101 C 613.87068,685.74001 614.60568,684.66201 618.23568,681.78101 C 626.40068,675.30201 635.21568,665.44701 638.08368,659.59201 C 642.37868,650.82101 643.16268,644.84001 641.23968,635.52401 C 638.28668,621.21101 634.35468,615.35401 621.99568,606.84601 C 615.31168,602.24401 614.19768,599.47701 616.57268,593.37501 C 623.52868,575.50201 623.66068,573.18001 618.35468,561.84201 C 615.88168,556.55701 615.13568,553.55101 615.13568,548.86201 C 615.13568,544.44601 614.24768,540.51201 611.92768,534.64101 L 608.71968,526.52201 L 610.65268,523.21301 C 613.38468,518.53501 617.01568,517.61101 627.00368,519.05501 C 638.96968,520.78501 640.91368,520.59601 646.31568,517.17001 C 651.00368,514.19701 651.30568,514.14301 654.83668,515.61701 C 656.85068,516.45901 662.14468,519.31601 666.60268,521.96701 C 673.03168,525.79101 674.93868,527.49001 675.82868,530.18601 C 676.44568,532.05501 677.32168,533.81501 677.77568,534.09601 C 678.40368,534.48301 698.86368,538.73301 700.17968,538.74801 C 700.32168,538.75001 700.43668,541.05701 700.43668,543.87501 C 700.43668,550.53301 704.81368,565.54301 708.50468,571.54701 C 711.02868,575.65201 711.85868,576.26601 714.91268,576.27901 C 717.25268,576.29101 720.30168,577.57601 724.05968,580.13401 C 727.16168,582.24301 730.42668,583.97001 731.31868,583.97001 C 733.55668,583.97001 737.52668,579.43701 741.50668,572.33901 C 744.73868,566.57101 745.48468,561.49301 744.47068,552.11001 C 744.09068,548.58701 744.71768,545.18801 746.09368,543.31501 C 747.50068,541.39701 747.60368,541.44001 748.72868,544.40301 C 749.37268,546.09801 751.20368,549.56701 752.79768,552.11001 C 754.39168,554.65301 756.00168,558.46901 756.37568,560.58901 C 757.02968,564.30601 757.20368,564.44301 761.26968,564.44301 L 765.48468,564.44301 L 764.83268,572.16401 C 764.11468,580.64801 764.59868,581.65601 771.04068,585.12301 C 773.83168,586.62501 774.20868,587.43601 774.85868,593.34401 C 776.13868,604.97301 778.36068,613.67001 780.92768,617.11001 C 782.30168,618.95001 785.30268,624.11801 787.59668,628.59201 C 791.46168,636.13301 791.67168,636.96301 790.45868,639.89701 C 789.18168,642.98501 788.99968,643.05501 783.24368,642.71101 C 778.27468,642.41401 776.95468,642.71901 774.92168,644.62901 C 772.56768,646.84001 772.37968,646.85601 767.63368,645.23801 C 764.95368,644.32401 762.01768,643.57801 761.10868,643.57801 C 759.32768,643.57801 752.85068,651.33601 752.85068,653.46901 C 752.85068,654.18201 751.87668,656.41601 750.68668,658.43401 C 749.17268,660.99801 748.72868,662.94801 749.20768,664.91401 C 750.28568,669.34401 754.43168,674.97701 758.43468,677.44901 C 761.82768,679.54701 762.10068,680.09001 762.10068,684.73401 C 762.10068,690.59501 764.25068,692.46601 769.92768,691.54701 C 773.20468,691.01401 773.41268,691.17401 774.44768,695.01401 C 775.63868,699.44001 777.85468,701.12901 782.46268,701.12901 C 784.12668,701.12901 787.14868,701.82401 789.17768,702.67201 C 791.20668,703.52001 795.40468,704.21301 798.50568,704.21301 L 804.14468,704.21301 L 804.76468,700.35901 C 806.19668,691.45301 805.88068,691.86301 810.77668,692.53501 C 816.16868,693.27301 821.39668,691.83601 843.72868,683.48201 C 852.81468,680.08401 865.91668,675.29601 872.84268,672.84701 L 885.43668,668.39201 L 888.08068,671.85901 L 890.72468,675.32401 L 883.59868,682.04701 C 877.36868,687.92401 875.97368,689.95701 872.51368,698.20901 C 870.33568,703.40001 867.43368,708.98201 866.06368,710.60901 C 862.16268,715.24601 853.86668,718.80601 828.38968,726.77701 C 790.57668,738.60701 786.51668,740.55001 784.68168,747.68501 C 782.28168,757.01701 780.37468,761.76501 779.02668,761.76501 C 774.82868,761.76501 766.26268,774.61301 758.42768,792.66101 C 752.39668,806.55601 747.24968,813.84501 733.98468,827.28001 C 727.70668,833.63901 722.94968,838.84301 723.41368,838.84301 C 723.87768,838.84301 729.80668,833.64201 736.58868,827.28601 C 749.68968,815.00901 756.36168,806.21001 760.73268,795.45601 C 765.43468,783.88401 776.20268,772.59101 793.75768,760.81901 C 802.84368,754.72701 808.08668,752.56301 813.82468,752.53601 C 817.95368,752.51801 819.28868,753.01801 821.78968,755.51801 C 825.93568,759.66301 825.90868,764.98101 821.71468,770.68401 C 818.32068,775.29901 815.96668,776.49301 806.80868,778.23901 C 803.41768,778.88701 797.86868,780.78601 794.47668,782.46001 C 791.08468,784.13401 786.22968,785.77601 783.68568,786.10801 C 776.09668,787.10201 775.46368,787.75101 775.46368,794.55301 L 775.46368,800.55101 L 770.43268,801.21901 C 766.05068,801.80101 765.19968,802.31501 763.84468,805.20501 C 761.61568,809.96101 760.39168,815.07001 758.07768,829.28901 C 755.75768,843.54901 754.77268,845.88501 748.56768,851.86701 C 744.30768,855.97401 743.55368,856.27101 730.94668,858.80501 C 716.30168,861.74901 711.22968,862.07901 710.02068,860.16801 L 710.02068,860.16801 z"
   style="fill:#C0C0C0;fill-opacity:1" /> <!-- Quebec - Mainland -->

<!-- PQ -->
  </g> <!-- Quebec -->

<!-- ON -->
  <path
   id="Ontario"
   class="ONT"
   d="M 599.55575,936.74199 C 600.63175,935.52899 602.01975,934.52899 602.63875,934.51899 C 605.29675,934.48199 606.49775,932.41499 607.34675,926.41699 C 607.94575,922.18099 609.31075,918.37599 611.40275,915.11799 C 614.22675,910.71599 614.55975,909.35799 614.59675,902.07302 C 614.62775,895.86202 615.21175,892.60802 617.06875,888.30502 C 619.30375,883.12302 619.37775,882.43402 617.97875,879.73102 C 615.91975,875.75102 616.61675,875.48302 620.79475,878.64702 C 622.73275,880.11602 626.15975,882.16502 628.41075,883.20402 C 632.16975,884.93602 632.65275,884.95602 634.32075,883.44602 C 638.02875,880.09102 635.68075,874.37602 627.04975,865.74302 C 623.34975,862.04202 620.90175,860.54802 617.06675,859.64502 C 609.56375,857.87702 597.54575,856.49702 589.37375,856.45902 C 582.82475,856.43202 581.72175,856.10502 577.12775,852.83802 C 571.87375,849.10402 567.48175,842.77502 568.08175,839.80502 C 568.50075,837.73102 565.03575,830.66203 562.59575,828.61203 C 561.63175,827.80103 557.78275,825.52003 554.04175,823.54203 C 547.95775,820.32503 547.13275,819.51303 546.21275,815.83503 C 544.66675,809.64903 544.06675,809.15303 538.11275,809.15303 C 535.13775,809.15303 530.57175,808.42603 527.96675,807.54003 C 523.20675,805.91703 518.97875,806.69403 518.97875,809.19003 C 518.97875,811.19403 518.39575,811.83603 511.30475,817.63103 C 503.16475,824.28303 503.69475,824.18603 487.49375,822.04903 C 476.60175,820.61303 473.59275,819.56103 463.11875,813.53703 C 461.90575,812.83803 458.73275,812.26003 456.06975,812.25203 C 453.40575,812.24403 448.68075,811.28503 445.57075,810.12103 C 440.49075,808.22103 439.84475,807.63703 439.23775,804.39403 C 438.86475,802.40803 437.40475,799.41203 435.99275,797.73403 L 433.42675,794.68303 L 435.03675,763.25703 C 436.89475,727.01303 435.92275,730.19803 449.59975,715.57303 C 453.72275,711.16503 469.00575,694.11203 483.56275,677.67803 C 498.11975,661.24603 510.37775,647.80103 510.80375,647.80103 C 511.22975,647.80103 514.67175,650.60603 518.45475,654.03303 C 524.63175,659.63103 539.71875,668.32003 543.30875,668.34603 C 543.97175,668.35203 546.73975,670.05303 549.45775,672.12903 L 554.40175,675.90203 L 568.29275,676.66203 C 575.93275,677.08003 583.51775,677.93703 585.14675,678.56803 C 588.08475,679.70303 588.10675,679.77703 587.56975,686.46303 C 587.16875,691.46903 587.75175,696.76003 589.82775,706.94203 C 592.94175,722.22303 594.02875,724.32503 604.85475,736.03003 C 608.33275,739.79003 612.17675,744.83103 613.40075,747.23303 C 615.51775,751.38903 615.84575,751.60003 620.22875,751.60003 C 622.76075,751.60003 624.83275,751.87103 624.83275,752.20203 C 624.83275,752.53403 626.22475,764.67503 627.92475,779.18103 C 633.94375,830.51303 634.94775,835.42303 640.52875,840.71802 C 644.99875,844.95802 648.59775,846.64202 658.71875,849.22602 C 668.78175,851.79602 676.18475,855.34702 678.10775,858.52702 C 679.34375,860.57002 680.04175,860.73402 684.99075,860.15202 C 688.02075,859.79702 693.80175,858.31402 697.83875,856.85902 C 701.87475,855.40202 705.36575,854.40002 705.59775,854.63002 C 705.82775,854.86202 706.11575,856.23402 706.23575,857.67902 C 706.40775,859.75902 703.68075,863.30602 693.13475,874.71202 C 685.80975,882.63602 678.96375,889.43902 677.92075,889.83102 C 676.87775,890.22202 671.92775,891.38202 666.91975,892.40702 C 648.83275,896.11202 638.18475,905.89502 648.47175,909.35399 C 652.10075,910.57499 653.88975,913.66299 651.37375,914.36399 C 642.41475,916.85999 638.30675,918.29399 636.65275,919.50299 C 634.91275,920.77599 634.85075,921.16299 636.14375,922.72199 C 637.50775,924.36499 637.20975,924.47199 631.99475,924.21199 C 622.94675,923.75899 622.48175,923.93699 614.19275,931.03799 C 607.89475,936.43299 605.38875,937.93399 601.93775,938.38199 L 597.59875,938.94499 L 599.55575,936.74199 z"
   style="fill:#C0C0C0" /> <!-- Ontario -->

<!-- MB -->
  <path
   id="Manitoba"
   class="MAN"
   d="M411.263,801.127c-3.109-0.186-16.289-1.488-29.29-2.895c-13-1.404-24.281-2.555-25.067-2.555  c-1.776,0.002-1.694-1.557,5.048-95.84c4.946-69.16,5.106-70.74,7.557-74.346c1.933-2.844,2.319-4.324,1.697-6.492  c-0.478-1.666-0.023-8.85,1.115-17.635c1.056-8.154,2.223-17.271,2.592-20.262l0.671-5.438l4.222,0.574  c4.579,0.621,58.525,6.432,64.244,6.918l3.499,0.299l-0.221,8.943c-0.122,4.918,0.273,9.867,0.878,10.998  c0.69,1.289,3.371,2.689,7.207,3.768c3.359,0.941,6.787,2.467,7.617,3.391c1.688,1.875,5.783,21.656,5.783,27.936  c0,4.037,0.021,4.059,4.032,4.059c2.218,0,6.367-0.539,9.22-1.197c4.381-1.012,5.79-0.936,9.07,0.49  c2.137,0.928,6.089,2.217,8.783,2.865c2.694,0.646,5.099,1.5,5.343,1.895c0.648,1.049-21.791,27.102-55.571,64.518  c-17.843,19.764-16.614,16.439-18.385,49.742c-0.822,15.475-1.774,31.027-2.116,34.559l-0.62,6.424l-5.828-0.189  C419.537,801.551,414.371,801.313,411.263,801.127L411.263,801.127z M395.232,773.071c-0.055-1.979-0.901-6.834-1.88-10.791  c-0.979-3.957-2.007-8.328-2.284-9.713c-0.276-1.387-2.567-4.584-5.092-7.107l-4.588-4.59l0.292-9.838  c0.258-8.686,0.519-9.881,2.226-10.207c2.396-0.459,6.802,1.797,6.802,3.484c0,0.686,1.879,5.002,4.175,9.59  c3.964,7.918,4.347,8.34,7.582,8.34c4.695,0,6.133,2.072,5.358,7.723c-0.493,3.596-0.311,4.609,0.829,4.609  c0.804,0,1.771-0.502,2.151-1.117c0.406-0.656,1.07-0.738,1.609-0.199s-0.161,4.076-1.694,8.568  c-3.99,11.684-2.045,15.139,5.347,9.5c3.61-2.754,3.633-2.818,2.966-8.717c-0.37-3.268-1.573-8.561-2.675-11.762  s-2.511-8.875-3.131-12.607c-2.532-15.23-8.675-30.537-13.232-32.977c-4.577-2.449-9.866,0.285-13.229,6.842l-1.843,3.594  l-2.801-3.672c-3.68-4.824-6.208-6.158-8.919-4.707c-1.704,0.91-1.972,1.758-1.444,4.572c0.532,2.836,0.264,3.658-1.505,4.605  c-3.118,1.668-2.66,3.936,1.58,7.818c3.555,3.256,3.703,3.656,3.102,8.361c-0.348,2.717-0.916,6.395-1.265,8.17  c-0.586,2.99-0.205,3.555,5.112,7.568c6.103,4.607,6.142,4.688,9.357,19.006c2.216,9.861,2.261,9.949,4.877,9.578  C394.939,776.723,395.316,776.057,395.232,773.071L395.232,773.071z"
   style="fill:#C0C0C0;fill-opacity:1" /> <!-- Manitoba -->

<!-- SK -->
  <path
   id="Saskatchewan"
   class="SASK"
   d="M334.185,793.03c-18.104-2.148-28.98-4.135-58.58-10.701  c-26.806-5.945-30.832-6.975-30.832-7.879c0-1.189,46.458-194.115,46.835-194.492c1.069-1.068,26.373,0.176,30.831,1.518  c5.117,1.541,6.288,1.391,5.034-0.639c-1.661-2.688-26.191-12.281-31.4-12.281c-1.953,0-2.146-0.4-1.573-3.266  c0.359-1.795,0.819-3.432,1.023-3.635s15.808,2.6,34.675,6.23c18.867,3.629,36.039,6.904,38.158,7.277  c2.12,0.375,3.846,1.236,3.836,1.918c-0.011,0.682-1.146,9.494-2.525,19.584l-2.508,18.346l-4.719,5.043l-4.718,5.045l0.687,6.066  c0.537,4.748,0.324,6.58-0.979,8.439c-2.751,3.93-2.18,5.322,1.42,3.461c3.438-1.777,3.355-1.926,3.146,5.652  c-0.194,7.023-9.255,136.568-9.901,141.566C351.436,795.374,352.53,795.206,334.185,793.03L334.185,793.03z"
   style="fill:#C0C0C0;fill-opacity:1" /> <!-- Saskatchewan -->

<!-- AB -->
    <path
   id="Alberta"
   class="ALTA"
   d="M221.504,769.393  c-26.62-7.168-26.319-7.045-28.926-11.82c-2.205-4.039-2.216-4.268-0.628-13.088c1.466-8.139,1.467-9.336,0.012-12.846  c-2.869-6.922-14.09-31.342-19.724-42.924c-3.025-6.217-6.247-13.904-7.161-17.082c-1.06-3.686-3.147-7.465-5.767-10.441  l-4.105-4.664l1.504-7.029c0.827-3.867,3.321-12.348,5.541-18.85c6.216-18.193,35.063-97.936,35.638-98.51  c0.28-0.281,10.795,2.787,23.367,6.818s33.494,10.436,46.495,14.23c13,3.795,23.795,7.018,23.989,7.162  c0.193,0.145-0.389,2.811-1.294,5.926c-1.031,3.547-2.331,5.879-3.48,6.244c-2.921,0.926-10.811,9.488-9.981,10.832  c1.415,2.289,5.043,2.977,7.496,1.422c2.213-1.404,2.315-1.355,1.832,0.869c-0.281,1.297-10.469,44.072-22.64,95.059  c-12.171,50.986-22.129,92.957-22.129,93.266C241.544,774.792,241.585,774.801,221.504,769.393z"
   style="fill:#C0C0C0;fill-opacity:1" /> <!-- Alberta -->

<!-- BC -->
  <g
   id="BritishColumbia"
   class="BC"
   style="fill:#C0C0C0;fill-opacity:1"> <!-- British Columbia -->

<!-- BC - Vancouver Island -->
    <path
   id="VancouverIsland"
   class="BC"
   d="M70.576,732.006c-3.571-2.291-10.187-10.703-11.319-14.395   c-0.427-1.391-1.87-3.391-3.207-4.441s-2.431-2.463-2.431-3.135s-3.188-7.75-7.084-15.73c-6.262-12.82-10.387-23.549-10.387-27.012   c0-0.633,1.173-1.684,2.606-2.338c2.398-1.092,3.02-0.783,7.794,3.877c5.922,5.779,17.546,19.469,19.135,22.535   c0.586,1.129,1.626,4.83,2.311,8.221c0.741,3.672,2.82,8.682,5.137,12.381c2.331,3.721,4.38,8.668,5.107,12.332   c0.668,3.365,1.445,6.928,1.727,7.918C80.689,734.758,74.656,734.622,70.576,732.006z"
   style="fill:#C0C0C0;fill-opacity:1" /> <!-- British Columbia - Vancouver Island -->

<!-- BC - Mainland -->
    <path
   id="BritishColumbiaCordillera"
   class="BC"
   d="M166.667,753.641c-21.432-7.475-70.625-25.736-77.849-28.9   c-3.024-1.324-4.368-2.539-4.368-3.947c0-1.119-1.503-4.037-3.34-6.484c-6.002-7.998-8.824-12.59-10.624-17.289   c-0.974-2.545-3.78-7.693-6.236-11.443c-2.456-3.75-4.465-7.766-4.465-8.924c0-1.248-1.882-3.646-4.625-5.895l-4.625-3.791v-10.189   c0-7.641,0.414-10.82,1.657-12.717c2.04-3.113,1.35-7.762-2.402-16.186c-2.378-5.338-2.521-6.352-1.423-10.018   c0.939-3.133,0.942-5.09,0.014-8.447c-0.664-2.404-1.246-8.475-1.292-13.492c-0.095-10.146-0.875-8.816,9.614-16.387   c5.352-3.861,13.229-17.49,13.311-23.031c0.03-2.021-1.791-6.85-4.651-12.334c-4.274-8.195-4.674-9.57-4.405-15.178   c0.686-14.303,0.158-35.48-1.063-42.65c-3.61-21.205-6.786-28.776-12.071-28.776c-1.295,0-5.261,1.572-8.813,3.494   c-3.552,1.921-7.5,3.802-8.771,4.18c-2.218,0.658-2.313,0.434-2.313-5.499c0-3.401-0.51-8.564-1.134-11.473   c-0.626-2.92-0.741-5.681-0.257-6.163c0.483-0.482,13.336,6.781,28.625,16.177c31.773,19.527,59.897,35.617,78.997,45.199   c11.977,6.008,52.285,23.715,57.946,25.453c1.271,0.391,2.312,1.086,2.312,1.543s-6.735,19.734-14.967,42.838   c-18.15,50.938-25.726,73.467-26.651,79.256c-0.631,3.953-0.335,4.859,3.132,9.582c2.106,2.869,5.119,8.387,6.695,12.26   s8.239,18.646,14.807,32.83l11.94,25.787l-0.304,13.854c-0.185,8.393-0.71,13.834-1.333,13.803   C187.17,760.655,177.689,757.485,166.667,753.641L166.667,753.641z"
   style="fill:#C0C0C0;fill-opacity:1" /> <!-- British Columbia - Mainland -->

<!-- BC - Queen Charlottes -->
    <path
   id="QueenCharlottes"
   class="BC"
   d="M18.35,619.678c-2.74-5.773-3.733-12.1-3.754-23.889c-0.02-11.383,1.246-19.012,3.152-19.012   c1.973,0,6.601,2.92,9.56,6.033c3.359,3.533,3.639,2.717-4.269,12.43c-2.405,2.955-4.683,6.6-5.061,8.1s0.072,6.402,1,10.896   c0.928,4.492,1.531,8.324,1.341,8.516C20.129,622.942,19.243,621.559,18.35,619.678L18.35,619.678z"
   style="fill:#C0C0C0;fill-opacity:1" /> <!-- British Columbia - Queen Charlotte Islands -->

<!-- BC -->
  </g> <!-- British Columbia -->

<!--YT-->
    <path
   id="Yukon"
   class="YK"
   d="M126.976,496.336c-34.161-18.057-96.656-56.663-98.189-60.658  c-0.625-1.628,0.474-4.738,2.442-6.912c3.455-3.817,3.287-4.069-4.889-7.341c-4.657-1.863-8.467-4.511-8.467-5.883  s23.613-37.576,52.473-80.452c34.951-51.926,53.651-77.957,56.001-77.957c2.426,0,4.817,3.604,7.648,11.527  c2.266,6.34,5.284,12.919,6.708,14.622c2.139,2.557,1.412,5.048-4.184,14.34c-3.725,6.186-8.088,15.232-9.696,20.105l-2.924,8.858  l6.841,5.711l6.84,5.71l-3.327,9.764c-2.958,8.682-2.985,10.14-0.247,13.166c3.879,4.287,3.972,10.06,0.185,11.513  c-5.992,2.299-7.823,11.708-4.299,22.086c4.15,12.224,4.552,23.436,1.453,40.554c-2.273,12.561-2.125,14.17,2.097,22.61  c3.13,6.259,4.445,12.355,4.225,19.587l-0.319,10.502l10.146,4.752c9.174,4.297,10.146,5.406,10.146,11.594  c0,3.764-0.694,6.828-1.542,6.811C155.252,510.928,142.146,504.354,126.976,496.336z"
   style="fill:#C0C0C0;fill-opacity:1" /> <!-- Yukon Territory -->

<!-- NU -->
  <g
   id="Nunavut"
   class="NU"
   style="fill:#C0C0C0"> <!-- Nunavut Territory -->

<!-- NU - Keewatin District -->
    <path
   id="Keewatin"
   class="NU"
   d="M435.722,579.561   c-3.674-0.523-18.381-2.264-32.682-3.865c-14.302-1.6-26.271-3.18-26.601-3.508c-0.33-0.33,1.403-21.658,3.851-47.398   c2.796-29.402,4.089-47.154,3.478-47.758c-0.535-0.527-12.303-6.937-26.151-14.244l-25.179-13.283l-5.505-8.105   c-5.794-8.532-5.614-8.418-16.803-10.656l-5.863-1.174l-19.929-27.428c-10.96-15.085-21.619-29.797-23.686-32.693l-3.757-5.265   l4.689-13.234c2.579-7.278,5.132-13.682,5.675-14.23c0.633-0.64,4.243,2.375,10.093,8.428c8.577,8.875,12.884,11.667,15.504,10.048   c1.898-1.173,8.117,4.45,10.82,9.784c3.901,7.699,3.575,8.663-3.612,10.679c-6.804,1.909-7.917,3.984-4.153,7.748   c4.845,4.845,24.349,8.262,33.615,5.889c3.203-0.82,3.363-0.68,10.021,8.732c4.642,6.563,6.775,10.534,6.797,12.652   c0.027,2.701,0.169,2.85,1.136,1.186c0.688-1.183,0.845-4.34,0.415-8.349l-0.69-6.447l7.709-4.23   c10.577-5.805,11.81-7.978,2.704-4.765c-5.942,2.097-8.856,1.938-10.619-0.58c-1.839-2.625-1.109-5.782,1.764-7.637   c2.58-1.666,17.819-4.674,19.81-3.911c0.762,0.292,2.124,3.071,3.026,6.176c1.916,6.591,7.644,13,12.483,13.968   c2.159,0.432,4.176,2.061,6.422,5.19c3.597,5.007,5.667,5.796,15.288,5.822c3.18,0.009,8.429,0.64,11.666,1.401   c6.661,1.567,5.915,2.28,8.044-7.684l1.229-5.753l4.66,0.871c5.221,0.975,15.633,5.45,15.646,6.724   c0.005,0.455-0.786,3.931-1.758,7.724c-1.761,6.87-1.759,6.906,0.505,9.316c1.25,1.33,2.286,3.083,2.304,3.895   c0.022,1.055,0.338,0.947,1.109-0.378c0.755-1.298,0.746-2.806-0.031-5.035c-0.61-1.75-1.109-5.366-1.109-8.036v-4.854l4.248-0.68   c2.903-0.464,5.374-1.805,7.807-4.238c3.397-3.397,3.531-3.806,2.923-8.958c-0.351-2.97-0.9-7.827-1.223-10.795   c-0.611-5.642-1.672-6.981-8.493-10.73c-5.314-2.921-7.527-7.551-6.956-14.553c0.327-4.015-0.044-7.457-1.119-10.356   c-2.073-5.595-1.138-9.289,3.447-13.613c1.968-1.855,3.439-4.033,3.271-4.839c-0.349-1.661,5.139-9.524,7.231-10.363   c2.005-0.804,3.536,0.33,9.208,6.816c4.711,5.388,5.146,6.345,5.842,12.846c0.524,4.909,1.801,9.057,4.239,13.772   c3.923,7.585,4.41,10.456,1.696,9.999c-1.441-0.243-1.921,0.707-2.44,4.836c-0.739,5.878,0.938,8.239,5.112,7.193   c2.656-0.666,12.481,2.195,12.481,3.634c0,0.494-1.655,1.209-3.679,1.589c-2.023,0.379-3.933,1.351-4.243,2.159   c-0.31,0.808,0.652,3.703,2.138,6.433c1.485,2.729,2.701,6.404,2.701,8.164c0,4.706,1.768,3.897,2.551-1.167   c1.703-11.001,4.89-15.055,8.953-11.387c7.957,7.183,11.308,15.535,8.448,21.064c-1.042,2.016-1.422,4.352-1.028,6.322   c0.786,3.928,6.556,13.033,8.259,13.033c2.35,0,4.453-3.548,5.688-9.594c1.552-7.592,5.258-18.514,8.041-23.694   c2.133-3.972,2.134-4.023,0.171-7.871c-2.636-5.167-3.568-11.464-2.103-14.201c2.636-4.926,16.055-1.295,27.564,7.458   c7.335,5.578,7.607,5.904,6.466,7.751c-0.49,0.793-0.245,2.822,0.581,4.8c1.897,4.54,1.805,6.309-0.367,7.047   c-0.989,0.337-2.878,1.514-4.197,2.617l-2.398,2.004l2.717,5.553c1.494,3.054,3.845,6.613,5.225,7.909   c3.811,3.58,3.429,9.709-1.147,18.417c-3.776,7.188-6.976,11.329-8.75,11.329c-0.562,0-2.6-0.66-4.53-1.467l-3.51-1.466   l1.002,2.637c0.552,1.45,0.874,2.739,0.717,2.864s-2.684,0.498-5.614,0.828c-4.327,0.489-5.806,0.226-7.87-1.397   c-2.696-2.121-7.384-2.6-9.897-1.01c-1.284,0.813-1.167,1.328,0.771,3.391c3.44,3.662,2.822,6.793-2.962,15.003   c-4.881,6.928-5.133,7.576-3.598,9.272c0.908,1.004,1.651,2.924,1.651,4.268c0,2.522-10.354,20.807-12.607,22.266   c-0.697,0.453-4.042,1.283-7.434,1.85c-5.523,0.92-6.327,1.373-7.708,4.346c-1.457,3.135-1.851,3.32-7.193,3.377l-5.652,0.059   l2.826,2.314c2.336,1.912,2.826,3.131,2.826,7.031c0,5.793-1.46,7.17-8.298,7.826c-4.256,0.41-5.095,0.818-4.848,2.361   c0.164,1.027-1.436,3.945-3.555,6.484c-11.205,13.426-23.381,37.264-23.381,45.775   C448.055,581.204,447.654,581.266,435.722,579.561L435.722,579.561z"
   style="fill:#C0C0C0" /> <!-- Nunavut - Mainland -->

<!-- NU - Southampton -->
    <path
   id="Southampton"
   class="NU"
   d="M537.123,513.284   c-0.377-0.377-0.686-1.902-0.686-3.391c0-3.711-1.777-5.174-6.287-5.174c-7.596,0-8.539-1.463-4.654-7.213   c2.116-3.133,2.488-5.18,2.984-16.424c0.312-7.066,1.36-15.968,2.331-19.784c1.655-6.503,1.946-6.938,4.658-6.938   c2.313,0,3.363,0.839,5.248,4.191c1.685,2.998,3.826,4.904,7.517,6.691c2.839,1.375,8.762,5.063,13.163,8.197   c6.78,4.827,8.381,6.553,10.478,11.293c2.456,5.555,2.51,5.596,6.997,5.596c7.131,0,10.226,5.158,6.125,10.211   c-1.94,2.391-3.65,2.67-10.02,1.631c-7.908-1.287-8.483-1.557-9.722-4.545c-1.252-3.023-6.238-5.979-8.123-4.814   c-0.556,0.344-1.33,2.123-1.722,3.953c-0.669,3.131-3.993,7.879-10.067,14.377C542.884,513.774,538.703,514.864,537.123,513.284   L537.123,513.284z"
   style="fill:#C0C0C0" /> <!-- Nunavut - Southampton Island -->

<!-- NU - Coats -->
    <path
   id="Coats"
   class="NU"
   d="M554.567,529.905   c-1.097-2.859,1.229-9.488,4.13-11.77c3.857-3.035,13.28-3.029,14.244,0.008c0.768,2.418-2.333,7.547-6.416,10.611   C562.842,531.518,555.459,532.229,554.567,529.905z"
   style="fill:#C0C0C0" /> <!-- Nunavut - Coats Island -->

<!-- NU - Mansel -->
    <path
   id="Mansel"
   class="NU"
   d="M592.607,537.782   c-4.712-5.207,1.436-17.182,6.315-12.303c2.748,2.748,0.121,14.182-3.259,14.182C594.919,539.661,593.543,538.815,592.607,537.782z"
   style="fill:#C0C0C0" /> <!-- Nunavut - Mansel Island -->

<!-- NU - Nottingham -->
    <path
   id="Nottingham"
   class="NU"
   d="M608.635,506.083   c-2.83-1.975-3.096-5.475-0.416-5.475c2.515,0,5.704,3.625,4.94,5.615C612.412,508.17,611.592,508.145,608.635,506.083   L608.635,506.083z"
   style="fill:#C0C0C0" /> <!-- Nunavut - Nottingham Island -->

<!-- NU - Salisbury -->
    <path
   id="Salisbury"
   class="NU"
   d="M615.572,496.043   c0-2.031,1.672-2.889,4.119-2.111c3.255,1.031,2.516,3.594-1.036,3.594C616.655,497.526,615.572,497.004,615.572,496.043z"
   style="fill:#C0C0C0" /> <!-- Nunavut - Salisbury Island -->

<!-- NU - Baffin -->
    <path
   id="Baffin"
   class="NU"
   d="M702.78,507.84   c-5.265-0.539-7.577-1.328-10.1-3.451c-2.138-1.799-4.477-2.754-6.751-2.754c-4.006,0-14.113-3.518-18.077-6.291   c-2.85-1.996-4.424-5.645-2.854-6.613c1.916-1.186,0.759-2.43-5.519-5.941c-3.547-1.982-7.361-4.613-8.476-5.846   c-4.438-4.903-11.401-6.509-15.331-3.538c-1.098,0.83-3.112,1.51-4.477,1.51c-1.365,0-4.311,1.448-6.546,3.219   c-3.917,3.102-4.313,3.193-10.939,2.521c-8.354-0.844-10.306-2.492-11.121-9.391c-0.511-4.321-0.275-5.38,1.566-7.043   c1.23-1.112,2.166-3.213,2.166-4.862c0-3.376,0.785-3.648,12.333-4.287c5.807-0.32,8.949-1.095,12.742-3.138   c2.77-1.492,5.718-2.713,6.552-2.713c2.545,0,0.645-5.952-2.836-8.881c-1.704-1.434-3.098-3.416-3.098-4.404   c0-0.989,2.352-6.609,5.227-12.488c5.011-10.246,5.178-10.86,4.022-14.811c-2.005-6.854-5.678-12.171-14.872-21.533   c-4.821-4.909-8.766-9.358-8.766-9.888c0-1.603-2.334-1.097-7.412,1.606c-2.654,1.413-5.078,2.569-5.387,2.569   c-1.454,0-0.329-5.03,1.494-6.68c1.131-1.023,2.056-2.242,2.056-2.709c0-1.529-4.896-2.118-7.229-0.87   c-2.769,1.482-4.496-0.396-2.976-3.236c1.601-2.991,1.181-3.715-5.283-9.094c-6.501-5.411-8.149-5.714-8.149-1.502v2.509h-12.271   c-7.296,0-12.537,0.428-12.925,1.056c-0.915,1.48-34.108,0.474-35.994-1.091c-0.781-0.648-1.7-2.062-2.043-3.141   c-0.525-1.655-1.627-1.962-7.025-1.962c-6.058,0-6.601-0.207-10.086-3.854c-7.745-8.102-7.718-11.562,0.091-11.562   c2.811,0,5.362-0.409,5.671-0.909c0.664-1.074-3.514-2.849-8.909-3.787c-3.448-0.599-3.964-1.107-5.004-4.923   c-3.898-14.309,4.819-48.364,14.455-56.473c4.117-3.464,10.807-4.478,15.794-2.393c4.324,1.806,4.713,3.651,1.67,7.924   c-3.025,4.249-7.151,17.033-7.082,21.944c0.09,6.347,1.345,12.192,2.716,12.649c0.674,0.225,2.132-1.367,3.239-3.538   c1.769-3.466,1.842-4.257,0.605-6.491c-2.185-3.947-1.868-10.61,0.612-12.854c1.15-1.042,2.928-3.773,3.948-6.069   c3.941-8.869,9.589-12.889,18.127-12.905c2.65-0.005,3.572,0.784,6.355,5.438c3.719,6.217,7.502,15.331,7.502,18.073   c0,2.547,3.235,5.263,6.247,5.244c3.305-0.021,4.724-1.029,5.936-4.215c1.094-2.876,6.68-6.046,10.656-6.046   c5.246,0,12.114,3.234,14.958,7.043c1.538,2.062,3.605,4.352,4.596,5.091c0.989,0.738,1.799,2.023,1.799,2.854   c0,1.429,9.002,10.65,10.434,10.687c0.368,0.01,1.175-1.431,1.792-3.201c1.05-3.011,1.371-3.18,4.982-2.62   c2.714,0.421,4.623,1.582,6.43,3.909c1.413,1.82,4.502,5.425,6.863,8.011c4.18,4.575,4.385,4.668,7.625,3.445   c2.91-1.098,3.763-0.99,6.753,0.859c3.633,2.245,3.743,2.506,3.433,8.114l-0.199,3.597l2.577-2.409   c1.822-1.704,3.221-2.205,4.776-1.711c2.916,0.926,7.859,7.868,8.666,12.172c0.392,2.087,1.565,3.929,2.99,4.691   c1.29,0.69,2.899,2.142,3.576,3.226c1.07,1.714,0.837,2.173-1.797,3.535c-1.664,0.861-3.865,1.565-4.892,1.565   c-1.583,0-1.888,0.95-2.01,6.26l-0.144,6.26l8.466,4.063c6.61,3.172,10.138,4.197,16.09,4.679   c7.025,0.568,7.964,0.927,11.969,4.579c3.047,2.779,5.278,3.963,7.473,3.963c2.339,0,3.423,0.648,4.299,2.569   c1.343,2.948,1.438,2.966,7.645,1.403c3.635-0.915,5.171-0.877,7.136,0.174c2.151,1.151,2.504,2.078,2.504,6.59   c0,3.02-0.66,6.191-1.553,7.466c-0.919,1.313-1.15,2.466-0.565,2.827c1.437,0.888,0.067,11.021-1.776,13.142   c-0.859,0.989-2.185,1.799-2.945,1.799c-2.029,0-1.702,1.844,1.208,6.81l2.591,4.42l-2.585,1.694   c-2.436,1.596-2.966,1.56-9.151-0.624c-5.393-1.904-7.275-3.221-10.539-7.371c-3.818-4.855-13.999-12.123-16.982-12.123   c-0.79,0-2.46,0.718-3.712,1.595l-2.276,1.594l2.226,3.01c2.089,2.826,2.12,3.127,0.506,4.91c-2.438,2.695-2.149,3.88,1.292,5.306   c1.656,0.687,4.826,3.241,7.043,5.677c2.95,3.242,5.587,4.92,9.835,6.259c3.192,1.007,5.804,2.207,5.804,2.667   c0,0.461,4.229,5.488,9.396,11.172l9.397,10.334l-0.585,9.804c-0.321,5.391-0.784,10.002-1.027,10.246   c-0.821,0.82-21.442-6.688-27.029-9.84c-4.794-2.705-11.734-4.23-11.734-2.576c0,1.752,8.447,8.512,13.786,11.031   c3.439,1.625,9.376,4.877,13.191,7.229c6.813,4.197,6.937,4.352,6.937,8.662v4.389l-8.479-0.146   C713.423,508.604,706.535,508.225,702.78,507.84L702.78,507.84z"
   style="fill:#C0C0C0" /> <!-- Nunavut - Baffin Island -->

<!-- NU - Air Force -->
    <path
   id="AirForce"
   class="NU"
   d="M623.836,398.907   c-2.396-2.396-1.988-4.153,0.962-4.153c3.272,0,5.162,1.169,5.162,3.193c0,1.07-0.193,1.945-0.43,1.945s-1.126,0.267-1.977,0.594   C626.7,400.813,625.035,400.106,623.836,398.907L623.836,398.907z"
   style="fill:#C0C0C0" /> <!-- Nunavut - Air Force Island -->

<!-- NU - Prince Charles -->
    <path
   id="PrinceCharles"
   class="NU"
   d="M605.32,414.307   c-2.688-2.688-3.454-6.126-2.887-12.963c0.582-7.021,3.342-11.088,7.827-11.535c2.351-0.234,3.921,0.379,5.808,2.266   c2.278,2.278,2.587,3.457,2.587,9.895c0,8.637-1.026,10.959-5.702,12.913C608.418,416.776,607.739,416.725,605.32,414.307   L605.32,414.307z"
   style="fill:#C0C0C0" /> <!-- Nunavut - Prince Charles Island -->

<!-- NU - Rowley -->
    <path
   id="Rowley"
   class="NU"
   d="M580.63,379.399   c0-0.532,0.442-1.241,0.983-1.575s1.759-3.368,2.705-6.741s2.175-6.133,2.729-6.133c1.205,0,0.066,8.772-1.535,11.819   C583.887,379.863,580.63,381.617,580.63,379.399z"
   style="fill:#C0C0C0" /> <!-- Nunavut - Rowley Island -->

<!-- NU - Victoria -->
    <path
   id="NunavutVictoria"
   class="NU"
   d="M386.906,381.503   c-7.242-3.978-18.04-11.75-18.548-13.351c-0.711-2.239-3.372-2.529-4.168-0.454c-0.627,1.632-4.323,3.247-9.657,4.218   c-1.979,0.36-5.196,1.381-7.15,2.269c-2.918,1.326-5.973,1.498-17.114,0.964c-18.541-0.889-18.428-0.831-19.274-9.938   c-0.854-9.183-1.714-10.809-6.554-12.382c-4.902-1.593-11.162-5.989-12.423-8.725c-1.134-2.46-3.6-13.849-3.091-14.275   c0.191-0.16,12.602,3.298,27.582,7.683c18.848,5.517,27.425,7.61,27.854,6.794c0.341-0.647,4.272-15.627,8.736-33.288   c4.463-17.661,8.429-32.113,8.813-32.116c1.833-0.015,4.956,11.788,4.971,18.789c0.019,8.813,1.229,11.571,3.703,8.44   c1.383-1.749,1.525-4.179,0.957-16.306c-0.589-12.579-0.462-14.478,1.085-16.187c2.104-2.324,6.326-2.508,9.327-0.406   c2.147,1.504,2.165,1.47,1.087-2.044c-0.924-3.011-0.803-3.9,0.772-5.641c2.867-3.167,8.71-2.775,12.15,0.816   c3.984,4.159,3.608,7.808-1.498,14.543l-4.251,5.607l0.666,11.66c0.366,6.413,1.141,13.78,1.722,16.372   c0.839,3.743,0.714,5.742-0.607,9.721c-1.597,4.805-1.576,5.191,0.502,9.483c1.191,2.46,5.147,7.336,8.791,10.836   c9.473,9.096,10.798,11.032,10.798,15.777v4.112l-4.414-0.605c-2.429-0.333-5.203-0.908-6.167-1.277   c-2.398-0.921-2.282,1.673,0.304,6.741c2.7,5.292,2.593,7.778-0.467,10.838c-1.99,1.99-3.563,2.516-7.451,2.491   C391.179,382.646,388.036,382.125,386.906,381.503L386.906,381.503z"
   style="fill:#C0C0C0" /> <!-- Nunavut - Victoria Island -->

<!-- NU - Melville -->
    <path
   id="NunavutMelville"
   class="NU"
   d="M382.281,231.478   c-1.413-0.573-4.104-0.798-5.979-0.502c-3.358,0.53-3.4,0.489-2.778-2.748c0.348-1.808,1.522-6.293,2.61-9.967   c1.089-3.674,2.678-10.842,3.532-15.929c2.73-16.258,4.541-20.05,8.143-17.061c1.059,0.879,1.293,3.756,0.983,12.08l-0.406,10.927   l5.146-0.609c4.502-0.533,5.344-0.33,6.711,1.623c0.876,1.25,1.564,4.416,1.564,7.194   C401.808,228.207,392.275,235.526,382.281,231.478L382.281,231.478z"
   style="fill:#C0C0C0" /> <!-- Nunavut - Melville Island -->

<!-- NU - Byam Martin -->
    <path
   id="ByamMartin"
   class="NU"
   d="M403.237,231.188   c-0.917-2.392,1.506-5.732,4.158-5.732c1.764,0,2.72,0.824,3.478,2.996c0.574,1.647,0.773,3.266,0.442,3.597   C410.073,233.29,403.787,232.62,403.237,231.188L403.237,231.188z"
   style="fill:#C0C0C0" /> <!-- Nunavut - Byam Martin Island -->

<!-- NU - Lougheed -->
    <path
   id="Lougheed"
   class="NU"
   d="M408.647,179.384   c-1.786-1.974-2.086-4.289-1.054-8.141c1.113-4.154,3.924-2.287,5.805,3.854c0.578,1.89-0.912,6.167-2.149,6.167   C410.754,181.263,409.582,180.417,408.647,179.384L408.647,179.384z"
   style="fill:#C0C0C0" /> <!-- Nunavut - Lougheed Island -->

<!-- NU - Borden -->
    <path
   id="NunavutBorden"
   class="NU"
   d="M391.063,146.008   c0-0.451,1.302-6.616,1.569-7.436c0.467-1.425,0.88-0.837,0.797,1.132c-0.089,2.123-0.677,4.544-1.381,5.69   C391.563,146.184,391.063,146.495,391.063,146.008L391.063,146.008z"
   style="fill:#C0C0C0" /> <!-- Nunavut - Borden Island -->

<!-- NU - Ellef Ringnes -->
    <path
   id="EllefRingnes"
   class="NU"
   d="M439.365,163.128   c-5.556-5.929-7.007-7.268-8.868-8.184c-1.672-0.823-1.901-0.865-5.504-1.006c-3.29-0.128-3.874-0.218-4.688-0.722   c-1.102-0.681-2.584-2.269-3.163-3.388c-1.335-2.582-0.316-6.334,1.881-6.926c1.304-0.351,2.997-1.643,3.387-2.584   c0.799-1.929-0.399-4.996-3.043-7.789c-2.229-2.355-2.904-3.625-2.904-5.462c0-2.597,1.717-4.489,4.548-5.012   c3.543-0.655,8.291,2.036,8.76,4.965c0.201,1.258,1.183,2.392,2.305,2.662c2.209,0.532,5.007,2.991,7.017,6.167   c1.965,3.106,3.304,5.073,4.493,6.601c1.611,2.071,1.679,2.715,0.668,6.409c-0.979,3.578-0.941,4.644,0.22,6.214   c2.243,3.032,3.372,4.875,3.369,5.503c-0.006,1.656-2.02,4.722-3.51,5.345C442.714,166.595,442.501,166.475,439.365,163.128z"
   style="fill:#C0C0C0" /> <!-- Nunavut - Ellef Ringnes Island -->

<!-- NU - Amund Ringnes -->
    <path
   id="AmundRingnes"
   class="NU"
   d="M457.749,166.641   c-2.759-1.145-3.573-2.338-3.596-5.264l-0.015-1.938l-1.542-2.105c-2.862-3.91-2.826-3.811-2.825-7.765   c0-3.076,0.067-3.614,0.592-4.753c0.748-1.625,1.711-2.636,2.797-2.936c1.497-0.414,2.196-0.086,9.971,4.663l3.597,2.198   l0.447,1.468c0.577,1.894,1.019,6.529,0.917,9.631l-0.079,2.435l-2.569,1.988C461.249,167.508,460.439,167.758,457.749,166.641   L457.749,166.641z"
   style="fill:#C0C0C0" /> <!-- Nunavut - Amund Ringnes Island -->

<!-- NU - Cornwall -->
    <path
   id="Cornwall"
   class="NU"
   d="M466.236,179.872   c-1.32-0.33-3.872-1.637-4.982-2.552c-2.586-2.131-2.477-4.257,0.355-6.936c3.517-3.325,7.924-3.617,12.023-0.796   c2.256,1.552,2.989,3.604,2.073,5.798c-0.546,1.305-2.689,3.391-4.149,4.037C470.183,180.03,467.709,180.239,466.236,179.872z"
   style="fill:#C0C0C0" /> <!-- Nunavut - Cornwall Island -->

<!-- NU - Bathurst -->
    <path
   id="Bathurst"
   class="NU"
   d="M440.521,237.573   c-2.135-0.469-3.956-1.199-5.291-2.122c-3.035-2.096-5.116-4.577-5.113-6.092c0.003-1.074,0.68-2.034,2.821-3.996l1.821-1.67   h-6.754c-6.595,0-6.776-0.014-7.701-0.589c-1.141-0.709-1.398-1.438-1.587-4.484c-0.229-3.708-0.81-4.498-5.795-7.877   c-3.585-2.43-3.502-2.22-1.935-4.895c1.037-1.77,1.419-1.945,3.798-1.741c3.774,0.323,6.851,1.521,6.851,2.67   c0,1.11,4.981,6.559,6.863,7.507c0.673,0.339,1.568,0.545,2.37,0.545c1.771,0,2.185-0.634,2.193-3.359   c0.007-1.84-0.052-2.062-0.784-2.976c-0.435-0.543-1.348-1.392-2.028-1.887c-2.567-1.866-3.862-3-3.95-3.458   c-0.118-0.612,2.961-3.555,5.456-5.216l1.827-1.217l2.441,0.039c2.86,0.046,7.559,0.653,9.561,1.235   c0.774,0.225,1.961,0.76,2.637,1.189l1.229,0.779l-0.174,6.087c-0.411,14.438-0.857,20.915-1.583,22.971   c-0.274,0.78-0.324,1.736-0.201,3.896c0.163,2.842,0.159,2.868-0.53,3.688C445.833,237.941,443.682,238.267,440.521,237.573   L440.521,237.573z"
   style="fill:#C0C0C0" /> <!-- Nunavut - Bathurst Island -->

<!-- NU - Ellesmere -->
    <path
   id="Ellesmere"
   class="NU"
   d="M549.153,208.5   c-0.41-0.626-0.533-1.325-0.389-2.214c0.169-1.045,0.046-1.462-0.632-2.141c-0.887-0.886-3.528-2.36-4.23-2.36   c-0.228,0-1.156,0.654-2.064,1.454c-1.879,1.654-2.276,1.709-5.635,0.778c-1.662-0.461-2.969-1.125-4.116-2.089   c-2.661-2.24-2.568-2.208-3.575-1.262c-0.591,0.555-0.998,1.44-1.16,2.522c-0.17,1.136-0.587,2.003-1.307,2.724l-1.057,1.057   l-3.792-0.254c-2.085-0.14-7.268-0.387-11.516-0.55c-8.104-0.311-9.413-0.569-11.108-2.192c-0.462-0.442-0.993-1.208-1.181-1.701   c-0.542-1.426-0.417-7.596,0.184-9.033c1.547-3.702,5.858-7.875,8.586-8.312c3.211-0.513,3.288-1.656,0.345-5.079   c-2.634-3.062-3.369-4.539-3.567-7.16c-0.115-1.534,0.024-2.373,0.574-3.452c1.328-2.602,1.89-2.878,5.84-2.878   c3.165,0,3.667,0.096,5.198,0.996c1.813,1.066,2.646,2.193,3.965,5.363c1.059,2.545,2.681,4.857,3.845,5.48   c0.768,0.411,1.055,0.404,1.851-0.044c0.518-0.292,0.999-0.706,1.069-0.919c0.07-0.213-0.95-1.603-2.269-3.088   c-3.31-3.727-4.57-5.622-4.779-7.184c-0.155-1.153,0.047-1.641,1.492-3.604c0.919-1.249,1.671-2.329,1.671-2.4   s-2.252-0.211-5.004-0.31c-5.774-0.208-7.086-0.654-7.941-2.702c-0.702-1.679-0.387-3.79,1.161-7.792   c0.73-1.887,1.125-3.442,0.997-3.931c-0.351-1.34,3.323-4.557,7.887-6.906l3.821-1.967l4.935,2.604   c2.713,1.432,5.183,2.604,5.487,2.604c0.358,0,0.636-0.483,0.782-1.363c0.126-0.749,0.324-1.713,0.442-2.142   c0.193-0.705,0.03-0.804-1.726-1.044c-2.784-0.381-3.379-0.677-5.647-2.809c-2.502-2.351-3.909-4.512-5.891-9.049   c-1.955-4.476-5.816-10.376-7.585-11.588c-1.964-1.346-2.371-2.875-2.128-7.978c0.237-4.986,0.655-6.607,1.974-7.656   c0.879-0.699,1.287-0.762,3.735-0.578c4.926,0.37,6.354,1.307,11.112,7.285c3.832,4.815,5.563,6.762,6.013,6.762   c1.006,0-0.978-4.411-3.509-7.807c-4.064-5.451-3.9-5.927,3.576-10.377c3.021-1.799,6.107-3.456,6.858-3.684   c1.147-0.348,1.436-0.645,1.8-1.862c0.288-0.962,1.368-2.436,3.22-4.393l2.785-2.944l-1.433-1.817   c-0.787-0.999-1.668-2.348-1.955-2.998c-0.288-0.649-0.653-1.181-0.813-1.181c-0.159,0-1.079,1.431-2.044,3.18   c-4.746,8.598-7.265,10.739-13.398,11.385c-1.833,0.193-5.352,0.696-7.817,1.117c-3.711,0.633-4.728,0.691-5.902,0.34   c-2.454-0.735-3.14-3.458-1.929-7.664c0.316-1.099,0.661-2.489,0.767-3.089l0.191-1.09l-1.118,1.052   c-0.615,0.579-1.637,2.094-2.27,3.367c-2.145,4.312-4.169,5.051-8.247,3.013c-3.557-1.777-5.396-4.393-4.487-6.385   c0.639-1.403,0.513-1.591-1.068-1.591c-0.813,0-1.773-0.159-2.136-0.353c-0.837-0.447-1.837-2.918-1.837-4.536   c0-1.994,0.591-3.042,3.279-5.815c2.613-2.695,3.026-3.467,1.856-3.467c-0.372,0-1.64-0.653-2.815-1.452   c-1.464-0.994-2.707-1.528-3.938-1.691c-1.985-0.264-3.47-1.406-3.47-2.668c0-1.17,1.296-3.438,2.583-4.521   c0.64-0.538,2.267-1.534,3.616-2.213c1.35-0.68,3.654-2.281,5.122-3.559c3.334-2.903,3.818-3.152,6.119-3.152   c2.722,0,3.327-0.428,3.051-2.154c-0.21-1.313-0.101-1.532,1.776-3.574c1.211-1.317,2.103-2.659,2.26-3.401   c0.424-1.987,1.114-2.498,3.379-2.498c1.685,0,2.474,0.26,5.05,1.664c3.558,1.939,3.9,1.852,4.268-1.087   c0.186-1.487,0.759-2.789,2.436-5.53c1.206-1.972,2.521-4.455,2.921-5.516c0.499-1.324,1.49-2.724,3.15-4.451   c2.374-2.47,2.46-2.521,4.27-2.521c1.955,0,2.729-0.504,3.213-2.089c0.137-0.45,0.841-1.268,1.564-1.817l1.316-0.999l5.571,0.103   l5.57,0.102l3.717-1.51c3.136-1.274,4.233-1.539,7.021-1.693c2.107-0.117,3.791-0.022,4.646,0.259   c1.168,0.385,1.885,0.314,5.553-0.553c3.823-0.903,4.422-0.957,6.479-0.577c1.247,0.229,4.063,0.417,6.258,0.417   c5.003,0,5.814,0.278,7.178,2.457c1.598,2.553,3.203,3.625,6.643,4.434c3.967,0.934,5.372,3.812,5.328,10.914   c-0.029,4.689-1.195,9.928-2.91,13.079c-0.968,1.778-3.316,3.799-5.71,4.912c-1.854,0.862-5.251,5.249-7.391,9.544   c-0.924,1.854-1.585,3.467-1.47,3.582c0.394,0.393,2.374-1.328,3.726-3.236c0.741-1.046,2.508-3.013,3.926-4.371   c2.404-2.303,2.676-2.462,4.03-2.362c1.914,0.142,2.366,1.064,2.37,4.831c0.005,3.869-0.392,5.154-2.913,9.447   c-2.266,3.859-3.259,6.14-3.955,9.083c-0.236,1-2.039,5.578-4.006,10.174c-3.752,8.77-4.978,12.959-5.833,19.945   c-0.451,3.68-1.067,5.402-2.472,6.897c-1.262,1.345-2.922,2.043-4.874,2.05c-0.855,0.003-1.758,0.134-2.005,0.291   c-0.246,0.157-0.777,1.243-1.181,2.413c-0.402,1.17-1.144,2.668-1.648,3.33c-1.014,1.329-6.073,3.995-8.122,4.279   c-1.285,0.179-3.315,1.815-3.315,2.674c0,0.276,0.572,1.041,1.271,1.701c1.087,1.024,1.272,1.437,1.272,2.832   c0,1.142-0.273,2.034-0.909,2.971c-0.499,0.736-0.908,1.403-0.908,1.482s0.776,0.25,1.727,0.38   c3.121,0.429,4.251,0.874,5.684,2.238c3.333,3.174,3.987,8.16,1.361,10.37c-1.651,1.39-1.635,1.581,0.322,3.743   c2.239,2.472,2.338,3.63,0.392,4.602c-1.772,0.885-1.943,1.138-2.239,3.317c-0.515,3.795-3.28,6.482-7.26,7.055l-1.975,0.284   l0.116,5.446c0.13,6.163,0.361,5.502-3.487,9.984c-1.049,1.222-1.907,2.5-1.906,2.839c0.003,1.215,1.492,3.025,3.88,4.713   c4.263,3.015,4.244,2.987,4.002,6.201c-0.342,4.53-2.028,7.986-5.68,11.637c-1.695,1.696-3.37,2.943-5.134,3.826   C551.633,209.69,550.008,209.804,549.153,208.5L549.153,208.5z"
   style="fill:#C0C0C0" /> <!-- Nunavut - Ellesmere Island -->

<!-- NU - Axel Heiberg -->
    <path
   id="AxelHeiberg"
   class="NU"
   d="M486.144,158.848   c-1.539-1.05-3.781-3.673-5.635-6.593c-0.76-1.195-2.073-3.073-2.92-4.172c-3.091-4.013-5.17-9.074-4.718-11.484   c0.262-1.395,1.99-3.561,3.432-4.297c0.52-0.266,1.634-0.598,2.477-0.738c1.031-0.171,2.039-0.709,3.088-1.649   c1.909-1.71,1.729-2.252-1.244-3.753c-1.999-1.009-2.094-1.021-4.825-0.607c-6.138,0.931-8.855,0.356-9.646-2.038   c-0.369-1.12-0.332-1.634,0.242-3.335c0.551-1.63,0.587-2.042,0.19-2.176c-0.27-0.09-1.034-0.643-1.7-1.227   c-1.518-1.333-2.001-3.336-1.568-6.501c0.41-3,1.279-4.495,2.686-4.618c3.527-0.308,4.16-0.493,4.16-1.213   c0-0.958-0.873-2.3-2.979-4.576c-1.971-2.13-2.141-3.021-1.04-5.444c0.842-1.854,1.798-2.515,4.387-3.03   c2.658-0.528,3.629-0.959,3.629-1.61c0-0.297-1.151-1.846-2.56-3.44l-2.559-2.9l0.923-1.823c1.145-2.258,2.835-4.213,4.615-5.337   c1.391-0.877,2.117-2.444,2.122-4.571c0.006-2.855,4.461-2.846,8.844,0.018c1.599,1.045,3.449,4.405,5.274,9.58   c1.729,4.897,2.199,5.68,6.623,10.997c2.678,3.219,3.605,4.792,3.605,6.115c0,1.573,0.984,3.271,3.771,6.504   c1.504,1.745,2.916,3.511,3.138,3.925c0.222,0.414,0.5,1.908,0.618,3.32c0.193,2.309,0.355,2.73,1.604,4.173   c0.765,0.883,2.742,2.766,4.395,4.185c1.653,1.418,3.309,3.048,3.678,3.621c1.028,1.594,0.911,4.939-0.257,7.321   c-1.22,2.488-6.442,9.033-9.086,11.388c-1.596,1.42-2.215,2.27-2.608,3.577c-0.735,2.443-2.443,5.276-4.505,7.473   c-1.719,1.83-1.828,1.886-3.172,1.609c-3.21-0.661-3.206-0.663-3.913,2.785c-0.24,1.171-0.969,1.395-4.57,1.401   C487.857,159.71,487.201,159.569,486.144,158.848L486.144,158.848z"
   style="fill:#C0C0C0" /> <!-- Nunavut - Axel Heiberg Island -->

<!-- NU - Meighen -->
    <path
   id="Meighen"
   class="NU"
   d="M446.722,111.247   c-2.346-2.48-3.038-4.365-2.313-6.299c0.615-1.643,2.602-2.817,4.119-2.437c1.388,0.349,2.91,2.032,4.193,4.638   c1.297,2.635,1.176,3.488-0.723,5.085C450.146,113.794,448.912,113.563,446.722,111.247L446.722,111.247z"
   style="fill:#C0C0C0" /> <!-- Nunavut - Meighen Island -->

<!-- NU - Devon -->
    <path
   id="Devon"
   class="NU"
   d="M492.156,252.836   c-2.133-1.074-4.181-1.801-5.925-2.104c-1.466-0.254-2.97-0.739-3.343-1.076c-0.756-0.684-1.314-2.829-1.658-6.366   c-0.127-1.299-0.625-3.908-1.107-5.797c-1.007-3.945-1.145-8.037-0.361-10.76c0.795-2.768,1.061-6.71,0.573-8.519   c-0.234-0.871-1.05-2.501-1.813-3.625c-0.763-1.124-1.622-2.605-1.909-3.294c-0.288-0.688-0.766-1.452-1.061-1.697   c-0.296-0.245-2.864-0.702-5.708-1.016c-2.844-0.313-5.55-0.714-6.013-0.89c-1.085-0.413-4.723-4.481-7.322-8.188l-2.035-2.904   l0.159-2.365c0.187-2.764,0.926-4.406,2.258-5.013c2.121-0.967,8.836-0.283,12.182,1.241c2.563,1.167,3.813,2.37,5.106,4.916   c1.328,2.617,2.005,2.857,8.043,2.857c6.765,0,7.681,0.562,8.457,5.185c0.186,1.105,0.524,1.551,1.757,2.313   c0.84,0.519,1.809,1.292,2.154,1.719c0.796,0.983,0.829,3.474,0.08,5.996c-0.69,2.324-0.528,2.883,1.497,5.164   c1.696,1.91,2.7,3.579,2.7,4.488c0,1.074,1.717,1.6,10.174,3.117c4.696,0.842,8.592,1.58,8.656,1.639s1.863-0.669,3.997-1.619   s4.582-2.025,5.441-2.391s2.494-1.388,3.634-2.273c2.688-2.088,3.51-2.489,5.705-2.783c2.722-0.365,10.258,0.353,12.693,1.209   c4.763,1.674,10.848,6.495,12.496,9.901c0.921,1.902,0.996,3.219,0.264,4.635c-0.462,0.894-0.457,1.303,0.045,3.37   c0.567,2.337,0.565,2.361-0.326,3.779c-0.494,0.785-1.104,2.326-1.357,3.425c-0.645,2.799-1.081,3.343-3.728,4.646   c-4.56,2.245-11.41,3.039-14.728,1.708c-0.85-0.341-1.548-0.725-1.553-0.853c-0.004-0.128-0.314-0.631-0.688-1.118l-0.681-0.885   l-2.309,1.5c-5.145,3.34-8.038,3.835-21.386,3.659c-10.088-0.133-10.68-0.274-11.994-2.851c-0.405-0.795-0.993-1.446-1.307-1.446   s-1.577,0.959-2.809,2.131C495.775,254.771,495.941,254.741,492.156,252.836L492.156,252.836z"
   style="fill:#C0C0C0" /> <!-- Nunavut - Devon Island -->

<!-- NU - Somerset -->
    <path
   id="Somerset"
   class="NU"
   d="M460.199,313.979   c-0.784-0.286-1.899-0.994-2.479-1.574c-0.951-0.951-1.103-1.449-1.556-5.115c-0.275-2.234-0.587-4.2-0.691-4.368   c-0.608-0.985-0.912-7.355-0.57-11.947c0.523-7.007,1.289-11.24,2.908-16.073c0.771-2.298,1.672-5.16,2.004-6.358   c0.331-1.199,0.874-2.484,1.206-2.855c1.023-1.144,3.073-1.979,6.379-2.599c4.742-0.889,6.593-0.785,9.717,0.545   c1.472,0.627,3.808,1.378,5.19,1.669c3.776,0.795,10.009,4.201,10.624,5.805c0.272,0.709-0.407,2.285-2.143,4.97   c-0.783,1.211-1.826,3.32-2.319,4.687s-1.59,3.672-2.437,5.123c-1.995,3.416-2.562,4.743-3.994,9.36l-1.185,3.815l-4.71,0.592   c-5.704,0.718-6.589,0.937-6.883,1.701c-0.125,0.326-0.457,2.78-0.739,5.455c-0.281,2.674-0.69,5.077-0.907,5.338   c-0.56,0.674-3.27,1.897-4.745,2.142C462.165,314.409,461.004,314.272,460.199,313.979L460.199,313.979z"
   style="fill:#C0C0C0" /> <!-- Nunavut - Somerset Island -->

<!-- NU - Bylot -->
    <path
   id="Bylot"
   class="NU"
   d="M568.388,289.842   c-1.241-0.78-2.96-3.521-5.837-9.309c-2.747-5.525-4.306-9.563-3.862-10.006c1.016-1.016,13.313-1.035,17.057-0.027   c3.26,0.878,9.015,6.002,12.172,10.839c3.172,4.859,2.484,5.69-4.977,6.015c-4.049,0.176-4.648,0.298-7.449,1.515   C571.581,290.57,569.91,290.798,568.388,289.842L568.388,289.842z"
   style="fill:#C0C0C0" /> <!-- Nunavut - Bylot Island -->

<!-- NU - Cornwallis -->
    <path
   id="Cornwallis"
   class="NU"
   d="M466.166,250.081   c-2.304-0.876-9.564-5.876-11.756-8.095c-0.938-0.95-1.021-1.236-0.876-2.996c0.201-2.427,3.785-9.744,5.72-11.679   c3.117-3.117,8.825-2.816,12.801,0.674c1.679,1.473,1.987,2.818,2.487,10.821c0.472,7.541,0.273,8.627-1.886,10.337   C470.931,250.51,468.295,250.891,466.166,250.081L466.166,250.081z"
   style="fill:#C0C0C0" /> <!-- Nunavut - Cornwallis Island -->

<!-- NU - Prince Of Wales -->
    <path
   id="PrinceOfWales"
   class="NU"
   d="M429.853,329.14   c-0.688-0.341-2.349-1.688-3.691-2.994c-2.294-2.229-2.456-2.495-2.673-4.372c-0.749-6.472-2.16-8.835-7.772-13.017   c-2.3-1.714-4.383-4.382-6.132-7.854c-1.084-2.152-1.247-2.797-1.113-4.406c0.202-2.435,1.818-5.718,3.415-6.936   c1.488-1.135,1.95-1.005,5.18,1.458c3.212,2.45,4.319,3.009,5.053,2.551c0.995-0.622,2.715-4.314,2.898-6.225   c0.156-1.635,0.063-1.874-1.453-3.736c-2.394-2.938-3.258-4.843-3.23-7.119c0.031-2.615,0.95-5.595,2.355-7.634   c1.771-2.569,2.121-2.585,6.783-0.296c2.219,1.089,4.288,1.98,4.597,1.98c0.31,0,1.043-0.404,1.631-0.898   c1.426-1.2,5.364-2.378,8.236-2.463c3.275-0.097,3.701,0.474,3.693,4.946c-0.006,3.584-0.099,3.888-1.396,4.571l-0.856,0.451   l1.197,1.236c1.185,1.222,1.191,1.249,0.617,2.419c-0.319,0.651-1.668,2.478-2.995,4.061c-1.328,1.583-2.585,3.194-2.792,3.582   c-0.461,0.862-0.208,1.151,2.12,2.417c1.635,0.889,1.743,1.044,2.164,3.116c0.244,1.199,1.096,3.57,1.893,5.269   c2.257,4.808,3.001,12.627,1.515,15.902c-1.392,3.065-5.786,6.904-8.596,7.509c-0.867,0.187-1.188,0.486-1.341,1.251   c-0.24,1.204-2.787,3.844-4.586,4.754C432.519,329.702,431.245,329.831,429.853,329.14L429.853,329.14z"
   style="fill:#C0C0C0" /> <!-- Nunavut - Prince of Wales Island -->

<!-- NU - King William -->
    <path
   id="KingWilliam"
   class="NU"
   d="M439.499,395.99   c-2.569-0.884-5.134-2.48-8.306-5.171c-1.295-1.098-3.071-2.355-3.947-2.794c-1.795-0.898-4.683-3.527-4.683-4.263   c0-1.291,2.623-5.359,7.674-11.9c3.758-4.868,4.852-5.996,5.813-5.996c1.018,0,7.234,6.227,9.07,9.084   c2.761,4.296,6.232,13.225,6.296,16.195c0.042,1.939-0.884,3.01-3.908,4.522C444.887,396.977,442.632,397.067,439.499,395.99   L439.499,395.99z"
   style="fill:#C0C0C0" /> <!-- Nunavut - King William Island -->

<!-- NU - Akimiski -->
    <path
   id="Akimiski"
   class="NU"
   d="M 599.702,722.516 C 593.417,720.375 592.985,718.133 598.601,716.803 C 602.306,715.928 602.841,716.082 605.073,718.676 C 609.369,723.672 607.344,725.12 599.702,722.516 z"
   style="fill:#C0C0C0" /> <!-- Nunavut - Akimiski Island -->

<!-- NU -->
  </g> <!-- Nunavut -->

<!-- NT -->
<g
   id="NorthwestTerritories"
   style="fill:#C0C0C0;fill-opacity:1">

<!-- NT - Mackenzie District -->
    <path
   id="Mackenzie"
   class="NWT"
   d="M363.328,571.233   c-1.131-0.25-16.393-3.223-33.915-6.607c-25.37-4.898-38.3-8.039-63.484-15.42c-36.338-10.648-66.211-20.557-89.352-29.637   l-16.15-6.338l-0.293-9.947l-0.293-9.947l-3.643-0.59c-2.003-0.324-6.331-2.127-9.616-4.008l-5.972-3.416l0.67-4.23   c0.369-2.326,1.32-4.885,2.114-5.684c1.24-1.25,1.153-1.862-0.615-4.344c-1.132-1.59-3.145-6.085-4.472-9.988   c-1.328-3.904-3.163-8.241-4.077-9.637c-1.516-2.313-1.527-3.507-0.124-13.505c0.847-6.032,2.26-13.747,3.141-17.145   c0.88-3.398,1.325-6.625,0.987-7.172c-0.337-0.546-0.994-3.188-1.458-5.872c-1.206-6.965-4.075-17.84-5.423-20.551   c-0.841-1.693-0.845-2.932-0.012-4.625c0.625-1.271,1.428-3.353,1.784-4.625c0.356-1.272,1.079-2.313,1.606-2.313   c2.682,0,5.069-4.28,5.069-9.09c0-3.674-0.539-5.467-2.056-6.839c-2.764-2.502-2.587-6.346,0.634-13.773   c1.648-3.8,2.452-7.109,2.077-8.546c-0.336-1.291-3.396-4.364-6.8-6.831c-3.404-2.467-6.188-4.858-6.188-5.314   c0-3.345,15.202-34.018,17.592-35.495c0.597-0.369,1.601-0.156,2.229,0.473c1.964,1.964,2.788,1.271,2.788-2.343   c0-4.068,0.649-4.428,9.638-5.349l6.529-0.669l0.692,3.689c0.831,4.427,1.911,5.266,4.795,3.722   c1.194-0.639,8.081-1.666,15.304-2.283c16.168-1.38,19.566-0.509,19.566,5.015c0,3.037,0.329,3.472,2.62,3.472   c1.441,0,4.008-0.717,5.704-1.594c6.306-3.261,8.084-0.176,8.108,14.058c0.017,10.083,1.598,10.832,8.698,4.116   c3.068-2.901,6.021-5.275,6.563-5.275s1.157,2.154,1.367,4.787c0.279,3.516-0.12,5.424-1.505,7.184   c-3.417,4.344,0.662,6.156,5.442,2.417c5.117-4.002,12.825-1.306,17.095,5.98c3.372,5.753,3.045,8.657-2.753,24.463   c-3.455,9.419-4.123,12.278-3.286,14.07c0.907,1.941,45.334,63.47,47.502,65.788c0.437,0.467,4.649,1.686,9.361,2.708   s8.702,2.259,8.868,2.748c0.165,0.488,2.268,3.891,4.672,7.56l4.371,6.672l25.615,13.642c14.088,7.503,25.829,13.857,26.093,14.121   c0.263,0.262-0.275,8.232-1.196,17.711s-2.917,30.299-4.436,46.268l-2.762,29.033l-3.68-0.119   C367.04,571.741,364.459,571.483,363.328,571.233L363.328,571.233z M265.878,525.043c2.362-1.346,5.227-2.447,6.368-2.447   c2.417,0,17.025-7.363,20.116-10.139c1.16-1.043,4.027-2.945,6.372-4.23c3.809-2.086,6.529-5.539,6.529-8.289   c0-0.539-2.045-0.98-4.546-0.98c-3.356,0-5.349,0.678-7.616,2.584c-4.989,4.199-10.173,5.914-15.47,5.119   c-4.817-0.723-6.039-1.809-21.954-19.518c-2.03-2.26-3.978-3.82-4.328-3.471c-0.351,0.352,0.716,4.049,2.371,8.219   c5.886,14.834,5.912,17.344,0.179,17.344c-1.457,0-4.247,1.096-6.199,2.432c-3.078,2.109-4.404,2.363-9.991,1.916   c-7.949-0.639-8.336,0.596-2.074,6.623c5.552,5.346,7.636,6.383,14.904,7.414C257.735,528.643,260.328,528.208,265.878,525.043   L265.878,525.043z M229.574,423.904c5.044-1.888,5.789-2.576,7.776-7.196l2.198-5.108l3.311,1.415   c1.821,0.778,4.52,1.981,5.997,2.673c2.352,1.1,3.207,0.928,6.856-1.376c4.055-2.56,6.105-5.81,4.898-7.763   c-0.327-0.529-2.322-1.524-4.434-2.211c-2.112-0.688-6.349-2.35-9.415-3.695l-5.575-2.445l3.263-3.366   c3.839-3.961,4.158-6.386,0.95-7.246c-1.271-0.341-10.553-0.626-20.625-0.634l-18.313-0.014l0.328,2.312   c0.333,2.347,1.228,2.765,13.166,6.145c5.794,1.64,6.547,4.127,1.967,6.495c-4.769,2.467-13.263,10.704-13.263,12.862   c0,2.019,4.576,6.101,6.838,6.101c0.782,0,3.744-1.215,6.583-2.699s5.369-2.491,5.622-2.238s-0.691,2.02-2.097,3.926   c-2.304,3.123-3.329,6.15-2.082,6.15C223.782,425.991,226.506,425.052,229.574,423.904L229.574,423.904z"
   style="fill:#C0C0C0;fill-opacity:1" /> <!-- Northwest Territories - Mainland -->

<!-- NT - Banks -->
    <path
   id="Banks"
   class="NWT"
   d="M258.688,290.635   c-0.288-0.465-1.058-3.845-1.712-7.511c-0.703-3.938-2.834-9.733-5.208-14.16l-4.019-7.495l3.931-4.324   c3.427-3.77,9.027-11.271,21.124-28.293c2.335-3.287,3.292-5.961,3.677-10.277c0.464-5.2,0.789-5.872,2.988-6.183   c2.692-0.38,13.463,2.361,17.583,4.475c1.418,0.728,4.11,3.455,5.98,6.06c3.735,5.202,7.777,7.79,12.2,7.814   c4.875,0.027,5.878,1.324,9.452,12.229c3.69,11.261,2.862,13.005-7.598,15.999c-11.024,3.155-26.989,14.026-32.237,21.951   c-4.938,7.458-6.052,8.199-13.358,8.891c-3.753,0.355-8.051,0.876-9.552,1.157C260.438,291.25,258.976,291.101,258.688,290.635   L258.688,290.635z"
   style="fill:#C0C0C0;fill-opacity:1" /> <!-- Northwest Territories - Banks Island -->

<!-- NT - Victoria -->
    <path
   id="NorthWestVictoria"
   class="NWT"
   d="M339.69,340.909   c-4.37-0.916-45.247-12.813-45.733-13.31c-1.292-1.32,20.488,0.708,24.666,2.298c6.4,2.436,11.305,3.542,11.305,2.551   c0-1.815-9.759-9.281-13.247-10.135c-2.041-0.499-6.762-1.62-10.49-2.49c-11.717-2.735-13.812-3.992-15.649-9.385   c-1.865-5.473-2.439-4.951,9.289-8.43l5.946-1.764l-3.597-0.954c-1.979-0.524-4.186-1.125-4.905-1.335   c-0.72-0.21-1.559-1.202-1.865-2.204s-1.545-3.764-2.753-6.137l-2.196-4.315l3.696-5.448c2.032-2.996,3.975-6.373,4.316-7.503   c1.344-4.448,12.769-9.674,27.18-12.432c4.152-0.794,7.97-1.186,8.482-0.869c1.405,0.869,1.119,5.829-0.621,10.763   c-0.854,2.42-1.311,4.643-1.016,4.938c0.296,0.295,1.942-0.501,3.659-1.77l3.12-2.308l4.317,2.56   c8.284,4.911,8.446,5.117,6.931,8.777c-1.647,3.977-1.164,4.591,2.514,3.192c2.527-0.961,2.779-1.469,2.272-4.59   c-0.387-2.384-0.091-3.906,0.922-4.747c0.82-0.681,1.704-1.025,1.964-0.766c0.444,0.444-15.486,65.605-16.145,66.041   C341.884,341.249,340.821,341.146,339.69,340.909L339.69,340.909z"
   style="fill:#C0C0C0;fill-opacity:1" /> <!-- Northwest Territories - Victoria Island -->

<!-- NT - Borden -->
    <path
   id="NorthWestBorden"
   class="NWT"
   d="M383.397,143.644   c-1.962-1.362-4.622-2.476-5.909-2.476c-3.072,0-3.032-2.583,0.071-4.617c2.286-1.498,11.293-2.575,12.387-1.481   c0.585,0.585-1.401,9.348-2.353,10.372C387.248,145.815,385.359,145.006,383.397,143.644L383.397,143.644z"
   style="fill:#C0C0C0;fill-opacity:1" /> <!-- Northwest Territories - Borden Island -->

<!-- NT - Mackenzie King -->
    <path
   id="MackenzieKing"
   class="NWT"
   d="M371.326,165.883   c-1.185-1.104-2.702-3.669-3.373-5.702s-2.333-4.809-3.693-6.169c-2.754-2.754-3.376-7.706-0.968-7.706   c0.828,0,1.99,0.905,2.582,2.012c0.996,1.861,1.852,1.965,11.4,1.383l10.324-0.629l-0.677,2.985   c-3.474,15.329-3.766,15.832-9.186,15.832C374.935,167.889,372.743,167.203,371.326,165.883L371.326,165.883z"
   style="fill:#C0C0C0;fill-opacity:1" /> <!-- Northwest Territories - Mackenzie King Island -->

<!-- NT - Prince Patrick -->
    <path
   id="PrincePatrick"
   class="NWT"
   d="M314.743,186.434   c-1.122-1.972-2.598-3.119-4.019-3.123c-4.337-0.013-7.518-1.885-7.518-4.427c0-3.367,3.438-6.109,11.744-9.368   c4.347-1.705,9.144-4.613,12.317-7.466c2.858-2.57,6.275-5.083,7.592-5.583c3.548-1.349,13.95-1.104,15.868,0.374   c3.034,2.339,2.718,6.684-0.761,10.437c-1.413,1.525-2.569,3.901-2.569,5.281c0,1.525-1.265,3.62-3.227,5.343   c-1.774,1.559-3.856,3.446-4.626,4.193c-3.835,3.725-7.142-1.796-3.973-6.633c1.608-2.455,1.6-2.533-0.178-1.558   c-1.029,0.565-4.415,3.64-7.523,6.834c-3.109,3.194-6.936,6.483-8.504,7.309C316.622,189.494,316.451,189.435,314.743,186.434   L314.743,186.434z"
   style="fill:#C0C0C0;fill-opacity:1" /> <!-- Northwest Territories - Prince Patrick Island -->

<!-- NT - Eglinton -->
    <path
   id="Eglinton"
   class="NWT"
   d="M320.521,198.272   c-1.626-3.57-0.498-5.521,4.51-7.794c5.392-2.447,7.848-2.547,8.689-0.354c0.45,1.173-0.88,3.024-4.399,6.127   C323.482,201.396,322.09,201.715,320.521,198.272L320.521,198.272z"
   style="fill:#C0C0C0;fill-opacity:1" /> <!-- Northwest Territories - Eglinton Island -->

<!-- NT - Melville -->
    <path
   id="NorthWestMelville"
   class="NWT"
   d="M345.448,234.285   c-4.279-4.416-3.883-6.795,1.442-8.658c8.675-3.035,9.714-3.535,9.17-4.417c-0.309-0.5-1.588-0.908-2.842-0.908   s-3.3-0.714-4.546-1.587c-1.698-1.189-2.769-1.318-4.272-0.514c-4.159,2.226-6.935,1.244-11.809-4.176   c-5.055-5.623-5.785-8.219-2.921-10.377c1.888-1.423,3.546-3.993,6.589-10.214c2.495-5.101,9.024-10.129,13.152-10.129   c4.374,0,7.235,1.671,7.235,4.226c0,1.154,1.394,3.492,3.097,5.194c4.071,4.072,4.78,5.528,5.668,11.647   c0.887,6.118,1.967,7.708,5.235,7.708c3.021,0,3.108,1.842,0.563,11.79c-1.779,6.954-1.998,7.264-7.427,10.53   C355.893,239.146,350.125,239.11,345.448,234.285L345.448,234.285z"
   style="fill:#C0C0C0;fill-opacity:1" /> <!-- Northwest Territories - Melville Island -->

<!-- NT -->
  </g> <!-- Northwest Territories -->

<!-- CA -->
</g> <!-- Canada -->

</svg>