<svg id="Layer_1" data-name="Layer 1" xmlns="http://www.w3.org/2000/svg" viewBox="0 0 12.5 12.5"><defs><style>.cls-1{fill:#333;}.cls-2{fill:#fff;}</style></defs><title>large_qmark</title><circle class="cls-1" cx="6.25" cy="6.25" r="6.25"/><path class="cls-2" d="M7.16,10.76a1.25,1.25,0,0,1-.91.36A1.33,1.33,0,0,1,5.75,11a1.26,1.26,0,0,1-.41-0.26,1.33,1.33,0,0,1-.28-0.4A1.13,1.13,0,0,1,5,9.88,1.24,1.24,0,0,1,5.33,9a1.34,1.34,0,0,1,.42-0.27,1.29,1.29,0,0,1,.5-0.1,1.25,1.25,0,0,1,.5.1A1.43,1.43,0,0,1,7.16,9a1.16,1.16,0,0,1,.28.4A1.25,1.25,0,0,1,7.16,10.76Z"/><path class="cls-2" d="M9.37,4.79a2.3,2.3,0,0,1-.3.61,3,3,0,0,1-.47.52C8.43,6.08,8.19,6.23,8,6.43a1.89,1.89,0,0,0-.4.77c0,0.18-.07.67-0.07,0.67H5a7,7,0,0,1,.37-1.4,4.16,4.16,0,0,1,.82-1l0.43-.43A2.68,2.68,0,0,0,7,4.67a0.85,0.85,0,0,0,.17-0.51A0.89,0.89,0,0,0,7,3.49a1,1,0,0,0-.71-0.25,1,1,0,0,0-.83.38,1.55,1.55,0,0,0-.3.85L3,4.24A3.52,3.52,0,0,1,3.38,3a2.78,2.78,0,0,1,.73-0.9,3.13,3.13,0,0,1,1-.54,4,4,0,0,1,1.21-.18,4.45,4.45,0,0,1,1.16.15,3,3,0,0,1,1,.48,2.42,2.42,0,0,1,.7.83A2.52,2.52,0,0,1,9.48,4,2.51,2.51,0,0,1,9.37,4.79Z"/></svg>