<svg id="Layer_1" data-name="Layer 1" xmlns="http://www.w3.org/2000/svg" viewBox="0 0 24 24"><defs><style>.cls-1{fill:#333;}.cls-2{fill:#fff;}</style></defs><title>BC_SelectedR</title><rect class="cls-1" width="24" height="24"/><path class="cls-2" d="M11.33,13.84a2.49,2.49,0,0,1-.22,1.1,2.16,2.16,0,0,1-.56.72,2.06,2.06,0,0,1-.76.4,3,3,0,0,1-.82.12H6.5V7.82H8.72a3.76,3.76,0,0,1,.78.09,2.15,2.15,0,0,1,.76.32,1.79,1.79,0,0,1,.57.64A2.19,2.19,0,0,1,11,9.92a2,2,0,0,1-.33,1.23,1.8,1.8,0,0,1-.77.63v0a1.85,1.85,0,0,1,.48.2,1.61,1.61,0,0,1,.44.4,2.17,2.17,0,0,1,.33.61A2.44,2.44,0,0,1,11.33,13.84Zm-1.56-3.7a1.29,1.29,0,0,0-.1-0.54,1,1,0,0,0-.26-0.35A1,1,0,0,0,9,9.06,1.62,1.62,0,0,0,8.61,9H7.83v2.33h0.8A1.38,1.38,0,0,0,9,11.26a1,1,0,0,0,.36-0.21,1.07,1.07,0,0,0,.26-0.37A1.34,1.34,0,0,0,9.77,10.14ZM10,13.73a1.47,1.47,0,0,0-.12-0.62,1.18,1.18,0,0,0-.31-0.41,1.19,1.19,0,0,0-.41-0.23,1.48,1.48,0,0,0-.45-0.07H7.83V15H8.73a1.46,1.46,0,0,0,.48-0.08,1.08,1.08,0,0,0,.39-0.24,1.15,1.15,0,0,0,.27-0.4A1.46,1.46,0,0,0,10,13.73Z"/><path class="cls-2" d="M16.64,16.09a2.48,2.48,0,0,1-1.29.31,2.52,2.52,0,0,1-1.28-.33,2.94,2.94,0,0,1-1-.92,4.61,4.61,0,0,1-.61-1.39A6.68,6.68,0,0,1,12.27,12a6.75,6.75,0,0,1,.22-1.77,4.52,4.52,0,0,1,.62-1.39,2.94,2.94,0,0,1,1-.91,2.53,2.53,0,0,1,1.27-.33,2.84,2.84,0,0,1,1.26.27,2.27,2.27,0,0,1,.89.76l-0.82,1a1.47,1.47,0,0,0-1.25-.7,1.2,1.2,0,0,0-.74.24,1.88,1.88,0,0,0-.53.66,3.57,3.57,0,0,0-.32,1,6.45,6.45,0,0,0-.11,1.2,6.38,6.38,0,0,0,.11,1.19,3.58,3.58,0,0,0,.32,1,1.86,1.86,0,0,0,.54.66,1.24,1.24,0,0,0,.76.24,1.21,1.21,0,0,0,.71-0.21,1.92,1.92,0,0,0,.5-0.52l0.82,1A2.62,2.62,0,0,1,16.64,16.09Z"/></svg>