<svg id="Layer_1" data-name="Layer 1" xmlns="http://www.w3.org/2000/svg" viewBox="0 0 24 24"><defs><style>.cls-1{fill:#333;}.cls-2{fill:#fff;}</style></defs><title>NS_SelectedR</title><rect class="cls-1" width="24" height="24"/><path class="cls-2" d="M10.17,16.18L7.79,10.27h0l0,5.91H6.51V7.82H8.12l2.35,5.94h0V7.82h1.23v8.37H10.17Z"/><path class="cls-2" d="M16.72,9.44a1.44,1.44,0,0,0-1.16-.56,1.2,1.2,0,0,0-.39.07,1,1,0,0,0-.34.21,1,1,0,0,0-.24.37,1.44,1.44,0,0,0-.09.53,1.05,1.05,0,0,0,.32.82,3.69,3.69,0,0,0,.84.55q0.31,0.15.63,0.35a2.87,2.87,0,0,1,.58.48,2.26,2.26,0,0,1,.59,1.6,2.81,2.81,0,0,1-.2,1.09,2.39,2.39,0,0,1-.52.8,2.12,2.12,0,0,1-.76.49,2.6,2.6,0,0,1-.92.17,3,3,0,0,1-1.29-.27,2.7,2.7,0,0,1-.95-0.68l0.77-1a2,2,0,0,0,.66.52,1.75,1.75,0,0,0,.79.19,1,1,0,0,0,.74-0.31,1.2,1.2,0,0,0,.3-0.86,1.1,1.1,0,0,0-.35-0.86,4.08,4.08,0,0,0-.9-0.59,5.4,5.4,0,0,1-.64-0.37,2.46,2.46,0,0,1-.53-0.48A2.15,2.15,0,0,1,13.27,11a2.6,2.6,0,0,1-.14-0.89A2.75,2.75,0,0,1,13.34,9a2.29,2.29,0,0,1,.54-0.77,2.19,2.19,0,0,1,.76-0.46,2.61,2.61,0,0,1,.86-0.15,3,3,0,0,1,1.14.21,2.2,2.2,0,0,1,.84.61Z"/></svg>