<svg id="Layer_1" data-name="Layer 1" xmlns="http://www.w3.org/2000/svg" viewBox="0 0 24 24"><defs><style>.cls-1{fill:#333;}.cls-2{fill:#fff;}</style></defs><title>NU_SelectedR</title><rect class="cls-1" width="24" height="24"/><path class="cls-2" d="M9.64,16.08L7.26,10.17h0l0,5.91H6V7.71H7.59l2.35,5.94h0V7.71H11.2v8.37H9.64Z"/><path class="cls-2" d="M17.88,14.35a2.78,2.78,0,0,1-.46,1,2.24,2.24,0,0,1-.82.68,2.75,2.75,0,0,1-1.22.25A2.71,2.71,0,0,1,14.16,16a2.21,2.21,0,0,1-.81-0.68,2.78,2.78,0,0,1-.45-1,5.41,5.41,0,0,1-.14-1.24V7.71h1.42V13a5.11,5.11,0,0,0,.05.75,2.07,2.07,0,0,0,.19.63,1.1,1.1,0,0,0,.37.43,1.22,1.22,0,0,0,1.21,0,1.1,1.1,0,0,0,.37-0.43,2.07,2.07,0,0,0,.19-0.63A5.11,5.11,0,0,0,16.62,13V7.71H18v5.4A5.14,5.14,0,0,1,17.88,14.35Z"/></svg>