<svg id="Layer_1" data-name="Layer 1" xmlns="http://www.w3.org/2000/svg" viewBox="0 0 24 24"><defs><style>.cls-1{fill:#333;}.cls-2{fill:#fff;}</style></defs><title>ON_SelectedR</title><rect class="cls-1" width="24" height="24"/><path class="cls-2" d="M11.74,11.77a7.28,7.28,0,0,1-.21,1.8,4.43,4.43,0,0,1-.6,1.39,2.83,2.83,0,0,1-1,.9,2.65,2.65,0,0,1-2.52,0A2.85,2.85,0,0,1,6.52,15a4.43,4.43,0,0,1-.6-1.39,7.26,7.26,0,0,1-.21-1.8,7.39,7.39,0,0,1,.2-1.8,4.32,4.32,0,0,1,.59-1.38,2.78,2.78,0,0,1,1-.89A2.71,2.71,0,0,1,10,7.7a2.78,2.78,0,0,1,1,.89,4.43,4.43,0,0,1,.6,1.38A7.21,7.21,0,0,1,11.74,11.77Zm-1.47,0a6.81,6.81,0,0,0-.1-1.2,3.84,3.84,0,0,0-.3-1A1.84,1.84,0,0,0,9.39,9a1,1,0,0,0-.67-0.24A1,1,0,0,0,8,9a1.83,1.83,0,0,0-.48.64,3.67,3.67,0,0,0-.29,1,7.64,7.64,0,0,0,0,2.4,3.75,3.75,0,0,0,.29,1,1.82,1.82,0,0,0,.48.65,1.1,1.1,0,0,0,1.36,0,1.82,1.82,0,0,0,.48-0.65,3.75,3.75,0,0,0,.29-1A7.22,7.22,0,0,0,10.27,11.77Z"/><path class="cls-2" d="M16.73,16l-2.37-5.91h0l0,5.91H13.06V7.6h1.62L17,13.54h0V7.6h1.23V16H16.73Z"/></svg>