<svg id="Layer_1" data-name="Layer 1" xmlns="http://www.w3.org/2000/svg" viewBox="0 0 24 24"><defs><style>.cls-1{fill:#fff;}.cls-2{fill:#333;}</style></defs><title>QC_UnselectedR</title><rect class="cls-1" x="0.5" y="0.5" width="23" height="23"/><path class="cls-2" d="M23,1V23H1V1H23m1-1H0V24H24V0h0Z"/><path class="cls-2" d="M8.83,16.18a2.61,2.61,0,0,1-1.23-.29,2.69,2.69,0,0,1-.94-0.84,4.07,4.07,0,0,1-.6-1.33,7,7,0,0,1-.21-1.78,6.94,6.94,0,0,1,.21-1.77A4.3,4.3,0,0,1,6.67,8.8a2.86,2.86,0,0,1,1-.88A2.52,2.52,0,0,1,8.87,7.6a2.48,2.48,0,0,1,1.24.31,2.82,2.82,0,0,1,.95.88,4.38,4.38,0,0,1,.6,1.35,6.61,6.61,0,0,1,.21,1.73,5.42,5.42,0,0,1-.09,1,5,5,0,0,1-.25.9,3.62,3.62,0,0,1-.37.72,1.68,1.68,0,0,1-.43.46v0l1.49,0v1.23H8.83Zm1.6-4.25a6.42,6.42,0,0,0-.1-1.17A3.46,3.46,0,0,0,10,9.83a1.85,1.85,0,0,0-.49-0.62A1,1,0,0,0,8.87,9a1,1,0,0,0-.67.23,1.85,1.85,0,0,0-.49.63,3.46,3.46,0,0,0-.3.94,6.42,6.42,0,0,0-.1,1.17,6.07,6.07,0,0,0,.11,1.17,3.58,3.58,0,0,0,.31.94,1.86,1.86,0,0,0,.49.63,1,1,0,0,0,.67.23,1,1,0,0,0,.67-0.24A1.89,1.89,0,0,0,10,14a3.65,3.65,0,0,0,.29-0.94A6.49,6.49,0,0,0,10.42,11.94Z"/><path class="cls-2" d="M17.29,16.09A2.48,2.48,0,0,1,16,16.4a2.52,2.52,0,0,1-1.28-.33,2.94,2.94,0,0,1-1-.92,4.61,4.61,0,0,1-.61-1.39A6.67,6.67,0,0,1,12.92,12a6.75,6.75,0,0,1,.22-1.77,4.52,4.52,0,0,1,.62-1.39,2.93,2.93,0,0,1,1-.91A2.53,2.53,0,0,1,16,7.6a2.84,2.84,0,0,1,1.26.27,2.27,2.27,0,0,1,.89.76l-0.82,1a1.47,1.47,0,0,0-1.25-.7,1.2,1.2,0,0,0-.74.24,1.88,1.88,0,0,0-.53.66,3.6,3.6,0,0,0-.32,1,6.49,6.49,0,0,0-.11,1.2,6.42,6.42,0,0,0,.11,1.19,3.61,3.61,0,0,0,.32,1,1.86,1.86,0,0,0,.54.66,1.24,1.24,0,0,0,.76.24,1.21,1.21,0,0,0,.71-0.21,1.93,1.93,0,0,0,.5-0.52l0.82,1A2.62,2.62,0,0,1,17.29,16.09Z"/></svg>