<svg id="Layer_1" data-name="Layer 1" xmlns="http://www.w3.org/2000/svg" viewBox="0 0 24 24"><defs><style>.cls-1{fill:#999;}.cls-2{fill:#fff;}</style></defs><title>tous_someSelectedR</title><rect class="cls-1" width="24" height="24"/><path class="cls-2" d="M4.31,9v7.27H2.89V9H1.3V7.75H5.9V9H4.31Z"/><path class="cls-2" d="M11.75,12a7.41,7.41,0,0,1-.21,1.83,4.51,4.51,0,0,1-.61,1.41,2.86,2.86,0,0,1-1,.91,2.69,2.69,0,0,1-2.56,0,2.89,2.89,0,0,1-1-.91,4.49,4.49,0,0,1-.61-1.41A7.36,7.36,0,0,1,5.63,12a7.49,7.49,0,0,1,.2-1.82,4.41,4.41,0,0,1,.6-1.4,2.81,2.81,0,0,1,1-.91,2.6,2.6,0,0,1,1.29-.32A2.58,2.58,0,0,1,10,7.85a2.81,2.81,0,0,1,1,.91,4.52,4.52,0,0,1,.61,1.4A7.34,7.34,0,0,1,11.75,12Zm-1.49,0a7,7,0,0,0-.1-1.22,3.88,3.88,0,0,0-.3-1,1.87,1.87,0,0,0-.49-0.65,1,1,0,0,0-.68-0.24A1.06,1.06,0,0,0,8,9.13a1.86,1.86,0,0,0-.49.65,3.69,3.69,0,0,0-.29,1,7.8,7.8,0,0,0,0,2.44,3.79,3.79,0,0,0,.29,1,1.85,1.85,0,0,0,.49.66,1.11,1.11,0,0,0,1.38,0,1.87,1.87,0,0,0,.49-0.66,3.83,3.83,0,0,0,.29-1A7.39,7.39,0,0,0,10.26,12Z"/><path class="cls-2" d="M17.56,14.5a2.85,2.85,0,0,1-.47,1,2.28,2.28,0,0,1-.83.69,2.78,2.78,0,0,1-1.24.25,2.74,2.74,0,0,1-1.24-.25A2.23,2.23,0,0,1,13,15.52a2.83,2.83,0,0,1-.46-1,5.52,5.52,0,0,1-.14-1.26V7.75H13.8V13.1a5.34,5.34,0,0,0,.05.76,2.12,2.12,0,0,0,.19.64,1.12,1.12,0,0,0,.38.44,1.24,1.24,0,0,0,1.22,0A1.13,1.13,0,0,0,16,14.51a2.12,2.12,0,0,0,.19-0.64,5.2,5.2,0,0,0,.05-0.76V7.75H17.7v5.48A5.25,5.25,0,0,1,17.56,14.5Z"/><path class="cls-2" d="M21.91,9.4a1.47,1.47,0,0,0-1.18-.56,1.21,1.21,0,0,0-.4.07,1,1,0,0,0-.59.58,1.46,1.46,0,0,0-.09.54,1.07,1.07,0,0,0,.32.83,3.78,3.78,0,0,0,.85.56q0.31,0.16.64,0.36a2.88,2.88,0,0,1,.59.49,2.29,2.29,0,0,1,.6,1.62,2.88,2.88,0,0,1-.2,1.1,2.46,2.46,0,0,1-.53.81,2.14,2.14,0,0,1-.77.5,2.62,2.62,0,0,1-.94.17,3.1,3.1,0,0,1-1.31-.28,2.76,2.76,0,0,1-1-.7l0.78-1.06a2,2,0,0,0,.67.53,1.78,1.78,0,0,0,.8.19A1,1,0,0,0,21,14.84a1.22,1.22,0,0,0,.3-0.88,1.12,1.12,0,0,0-.36-0.88,4.07,4.07,0,0,0-.91-0.6,5.5,5.5,0,0,1-.65-0.37,2.51,2.51,0,0,1-.54-0.49A2.2,2.2,0,0,1,18.41,11a2.65,2.65,0,0,1-.14-0.91,2.77,2.77,0,0,1,.21-1.13A2.31,2.31,0,0,1,19,8.15a2.21,2.21,0,0,1,.77-0.46,2.65,2.65,0,0,1,.88-0.15,3,3,0,0,1,1.16.21,2.23,2.23,0,0,1,.86.62Z"/></svg>