<svg id="Layer_1" data-name="Layer 1" xmlns="http://www.w3.org/2000/svg" viewBox="0 0 24 24" width='30' height='30'><defs><style>.cls-1{fill:#2278b5;}.cls-2{fill:#fff;}</style></defs><title>AB_Selected</title><rect class="cls-1" width="24" height="24"/><path class="cls-2" d="M10.6,16.2l-0.4-1.8H8L7.6,16.2H6.2L8.3,7.8h1.8l2,8.4H10.6Zm-1.4-7h0l-1,4.1H10Z" transform="translate(0 -0.1)"/><path class="cls-2" d="M17.8,13.8a3.59,3.59,0,0,1-.2,1.1,1.34,1.34,0,0,1-.6.7,2,2,0,0,1-.8.4,2.49,2.49,0,0,1-.8.1H13V7.8h2.2a2.49,2.49,0,0,1,.8.1c0.3,0.1.5,0.2,0.8,0.3l0.6,0.6a3.09,3.09,0,0,1,.2,1.1,2.13,2.13,0,0,1-.3,1.2,1.56,1.56,0,0,1-.8.6h0a1.06,1.06,0,0,1,.5.2,0.78,0.78,0,0,1,.4.4l0.3,0.6A2.48,2.48,0,0,1,17.8,13.8Zm-1.5-3.7a0.75,0.75,0,0,0-.1-0.5c-0.1-.1-0.2-0.3-0.3-0.4A0.52,0.52,0,0,0,15.5,9H14.3v2.3h0.8a0.6,0.6,0,0,0,.4-0.1,0.76,0.76,0,0,0,.4-0.2,1.38,1.38,0,0,0,.3-0.4A0.75,0.75,0,0,0,16.3,10.1Zm0.2,3.6a1.08,1.08,0,0,0-.1-0.6,1.38,1.38,0,0,0-.3-0.4,0.76,0.76,0,0,0-.4-0.2c-0.1,0-.3-0.1-0.4-0.1H14.4V15h0.9a0.9,0.9,0,0,0,.5-0.1c0.1-.1.3-0.1,0.4-0.2a1.38,1.38,0,0,0,.3-0.4A1.22,1.22,0,0,1,16.5,13.7Z" transform="translate(0 -0.1)"/></svg>