<svg id="Layer_1" data-name="Layer 1" xmlns="http://www.w3.org/2000/svg" viewBox="0 0 24 24" width='30' height='30'><defs><style>.cls-1{fill:#aec7e8;}.cls-2{fill:#fff;}</style></defs><title>BC_Selected</title><rect class="cls-1" width="24" height="24"/><path class="cls-2" d="M11.3,13.7a3.59,3.59,0,0,1-.2,1.1,1.34,1.34,0,0,1-.6.7,2,2,0,0,1-.8.4,1.85,1.85,0,0,1-.7.2H6.5V7.7H8.7a2.49,2.49,0,0,1,.8.1C9.8,7.9,10,8,10.3,8.1l0.6,0.6A3.75,3.75,0,0,1,11,9.8a2.13,2.13,0,0,1-.3,1.2,1.56,1.56,0,0,1-.8.6h0a1.06,1.06,0,0,1,.5.2,0.78,0.78,0,0,1,.4.4l0.3,0.6A2.39,2.39,0,0,1,11.3,13.7ZM9.8,10a0.75,0.75,0,0,0-.1-0.5C9.6,9.4,9.5,9.2,9.4,9.1A1.42,1.42,0,0,1,9,8.9a0.55,0.55,0,0,0-.4,0H7.8v2.3H8.6A0.6,0.6,0,0,0,9,11.1a0.76,0.76,0,0,0,.4-0.2,1.38,1.38,0,0,0,.3-0.4A0.9,0.9,0,0,0,9.8,10ZM10,13.6A1.08,1.08,0,0,0,9.9,13a1.38,1.38,0,0,0-.3-0.4,0.76,0.76,0,0,0-.4-0.2c-0.1,0-.3-0.1-0.4-0.1h-1v2.6H8.7a0.9,0.9,0,0,0,.5-0.1c0.1-.1.3-0.1,0.4-0.2a1.38,1.38,0,0,0,.3-0.4C9.9,14,10,13.8,10,13.6Z"/><path class="cls-2" d="M16.6,16a2.5,2.5,0,0,1-1.3.3A2.77,2.77,0,0,1,14,16a2.84,2.84,0,0,1-1-.9,3.51,3.51,0,0,1-.6-1.4,9,9,0,0,1-.2-1.8,11,11,0,0,1,.2-1.8A5.91,5.91,0,0,1,13,8.7a2.84,2.84,0,0,1,1-.9,3,3,0,0,1,2.6,0,1.76,1.76,0,0,1,.9.8l-0.8,1a1.36,1.36,0,0,0-1.3-.7,1.45,1.45,0,0,0-.7.2,1.79,1.79,0,0,0-.5.7c-0.1.3-.2,0.6-0.3,1a4.87,4.87,0,0,0-.1,1.2,4.87,4.87,0,0,0,.1,1.2c0.1,0.4.2,0.7,0.3,1a1.79,1.79,0,0,0,.5.7,1.08,1.08,0,0,0,.8.2,1.45,1.45,0,0,0,.7-0.2,1.21,1.21,0,0,0,.5-0.5l0.8,1C17.3,15.5,17,15.8,16.6,16Z"/></svg>