<svg id="Layer_1" data-name="Layer 1" xmlns="http://www.w3.org/2000/svg" viewBox="0 0 24 24"><defs><style>.cls-1{fill:#fff;}.cls-2{fill:#2fa148;}</style></defs><title>NB_Unselected</title><rect class="cls-1" x="0.5" y="0.5" width="23" height="23"/><path class="cls-2" d="M23,1V23H1V1H23m1-1H0V24H24V0h0Z"/><path class="cls-2" d="M9.78,16.18L7.41,10.27h0l0,5.91H6.12V7.82H7.74l2.35,5.94h0V7.82h1.23v8.37H9.78Z"/><path class="cls-2" d="M17.88,13.84a2.49,2.49,0,0,1-.22,1.1,2.16,2.16,0,0,1-.56.72,2.06,2.06,0,0,1-.76.4,3,3,0,0,1-.82.12H13V7.82h2.22a3.76,3.76,0,0,1,.78.09,2.15,2.15,0,0,1,.76.32,1.8,1.8,0,0,1,.57.64,2.2,2.2,0,0,1,.22,1.06,2,2,0,0,1-.33,1.23,1.8,1.8,0,0,1-.77.63v0A1.85,1.85,0,0,1,17,12a1.61,1.61,0,0,1,.44.4,2.15,2.15,0,0,1,.33.61A2.42,2.42,0,0,1,17.88,13.84Zm-1.56-3.7a1.29,1.29,0,0,0-.1-0.54A1,1,0,0,0,16,9.25a1,1,0,0,0-.37-0.2A1.62,1.62,0,0,0,15.16,9H14.38v2.33h0.8a1.38,1.38,0,0,0,.42-0.06A1,1,0,0,0,16,11.05a1.07,1.07,0,0,0,.26-0.37A1.34,1.34,0,0,0,16.32,10.14Zm0.2,3.58a1.47,1.47,0,0,0-.12-0.62,1.18,1.18,0,0,0-.31-0.41,1.19,1.19,0,0,0-.41-0.23,1.48,1.48,0,0,0-.45-0.07H14.38V15h0.89a1.46,1.46,0,0,0,.48-0.08,1.08,1.08,0,0,0,.39-0.24,1.15,1.15,0,0,0,.27-0.4A1.46,1.46,0,0,0,16.52,13.73Z"/></svg>