<svg id="Layer_1" data-name="Layer 1" xmlns="http://www.w3.org/2000/svg" viewBox="0 0 24 24"><defs><style>.cls-1{fill:#fff;}.cls-2{fill:#8c564b;}</style></defs><title>PEI_Unselected</title><rect class="cls-1" x="0.5" y="0.5" width="23" height="23"/><path class="cls-2" d="M23,1V23H1V1H23m1-1H0V24H24V0h0Z"/><path class="cls-2" d="M11.81,10.29a3,3,0,0,1-.19,1.12,2.39,2.39,0,0,1-.51.8,2,2,0,0,1-.73.47,2.4,2.4,0,0,1-.85.15h-1v3.36H7.14V7.82H9.45a3.1,3.1,0,0,1,.83.12,2,2,0,0,1,.76.41,2.22,2.22,0,0,1,.55.76A2.82,2.82,0,0,1,11.81,10.29Zm-1.34,0a1.3,1.3,0,0,0-.32-1A1.13,1.13,0,0,0,9.34,9H8.54v2.65h0.8a1.06,1.06,0,0,0,.82-0.35A1.45,1.45,0,0,0,10.48,10.3Z"/><path class="cls-2" d="M13,16.18V7.82h3.75V9.07H14.35v2.22h2.21v1.16H14.35v2.47h2.51v1.26H13Z"/></svg>