<svg id="Layer_1" data-name="Layer 1" xmlns="http://www.w3.org/2000/svg" viewBox="0 0 24 24"><defs><style>.cls-1{fill:#fff;}.cls-2{fill:none;stroke:#999;stroke-miterlimit:10;}.cls-3{fill:#999;}</style></defs><title>coal_unavailable</title><rect class="cls-1" x="0.5" y="0.5" width="23" height="23"/><line class="cls-2" x1="1" y1="1" x2="23" y2="23"/><polygon class="cls-1" points="11.65 1.91 22.44 8.22 22.66 14.71 18.47 21.87 13.01 22.47 1.84 15.95 1.41 9.18 5.53 2.13 11.65 1.91"/><path class="cls-3" d="M23,1V23H1V1H23m1-1H0V24H24V0h0Z"/><circle class="cls-3" cx="16.06" cy="18.53" r="2.41"/><circle class="cls-3" cx="7.94" cy="18.53" r="2.41"/><polygon class="cls-3" points="18.47 15.6 5.53 15.6 2.48 7.79 21.52 7.79 18.47 15.6"/><path class="cls-3" d="M5,6.17H18.87a5.83,5.83,0,0,0-6-.91S8.64,0.17,5,6.17Z"/></svg>