<svg id="Layer_1" data-name="Layer 1" xmlns="http://www.w3.org/2000/svg" viewBox="0 0 24 24"><defs><style>.cls-1{fill:#fff;}.cls-2{fill:none;stroke:#999;stroke-miterlimit:10;}.cls-3{fill:#999;}</style></defs><title>naturalGas_unselectedR</title><rect class="cls-1" x="0.45" y="0.52" width="23.07" height="23.07"/><line class="cls-2" x1="1" y1="1" x2="23" y2="23"/><polygon class="cls-1" points="7.63 9.54 10.36 3.69 17.59 2.12 18.04 15.73 16.89 18.78 17.59 21.88 8 21.88 7.63 9.54"/><path class="cls-3" d="M23,1V23H1V1H23m1-1H0V24H24V0h0Z"/><path class="cls-3" d="M12,21.91C8.91,21,6.83,16.55,6.83,14.64S12,2.53,12,2.53s5.17,10.2,5.17,12.11S15.09,21,12,21.91Zm2.59-4.32C14.59,16.64,12,12,12,12s-2.59,4.67-2.59,5.62A4.1,4.1,0,0,0,12,20.91,4.1,4.1,0,0,0,14.59,17.59Z"/></svg>