<svg id="Layer_1" data-name="Layer 1" xmlns="http://www.w3.org/2000/svg" viewBox="0 0 24 24"><defs><style>.cls-1{fill:#fff;}.cls-2{fill:none;stroke:#999;stroke-miterlimit:10;}.cls-3{fill:#999;}</style></defs><title>nuclear_unavailable</title><rect class="cls-1" x="0.5" y="0.5" width="23" height="23"/><line class="cls-2" x1="1" y1="1" x2="23" y2="23"/><rect class="cls-1" x="4.92" y="5.68" width="14.16" height="12.63"/><path class="cls-3" d="M23,1V23H1V1H23m1-1H0V24H24V0h0Z"/><path class="cls-3" d="M14.74,12.07c0,5.14-1.25,9.3-2.79,9.3s-2.79-4.16-2.79-9.3,1.25-9.3,2.79-9.3S14.74,6.93,14.74,12.07ZM12,4.41c-1.41,0-2.35,3-2.35,7.66s0.93,7.66,2.35,7.66,2.35-3,2.35-7.66S13.36,4.41,12,4.41Z"/><path class="cls-3" d="M13.33,9.63c4.48,2.5,7.51,5.63,6.76,7s-5,.41-9.48-2.09-7.51-5.63-6.76-7S8.85,7.12,13.33,9.63Zm-8-1.29c-0.69,1.24,1.43,3.49,5.54,5.78S18,17,18.66,15.8s-1.44-3.49-5.55-5.8S6,7.1,5.28,8.33h0Z"/><path class="cls-3" d="M20.09,7.53c0.75,1.35-2.27,4.47-6.76,7S4.6,18,3.85,16.6s2.27-4.47,6.76-7S19.34,6.19,20.09,7.53ZM10.83,10c-4.11,2.31-6.23,4.56-5.55,5.8S9,16.41,13.11,14.12s6.23-4.55,5.54-5.78S14.94,7.73,10.83,10Z"/><circle class="cls-3" cx="11.95" cy="12.07" r="1.48"/></svg>