<svg id="Layer_1" data-name="Layer 1" xmlns="http://www.w3.org/2000/svg" viewBox="0 0 24 24"><defs><style>.cls-1{fill:#fff;}.cls-2{fill:none;stroke:#999;stroke-miterlimit:10;}.cls-3{fill:#999;}</style></defs><title>oil_products_unavailable</title><rect class="cls-1" x="0.5" y="0.5" width="23" height="23"/><line class="cls-2" x1="1" y1="1" x2="23" y2="23"/><rect class="cls-1" x="4.88" y="2.47" width="14.25" height="19.35"/><path class="cls-3" d="M23,1V23H1V1H23m1-1H0V24H24V0h0Z"/><path class="cls-3" d="M13.73,2.7H7.88a1.5,1.5,0,0,0-1.5,1.5V18.78h8.84V4.19A1.5,1.5,0,0,0,13.73,2.7ZM14,10.52H8v-6h6v6Z"/><rect class="cls-3" x="5.78" y="20.34" width="10.05" height="1.13"/><path class="cls-3" d="M17.31,10.75c-0.11-.42-0.21-0.86-0.22-0.95a2.28,2.28,0,0,1,.52-1.25L16.85,6.63,15,5V5.7l1,0.88v2h1a2.94,2.94,0,0,0-.42,1.22,5.5,5.5,0,0,0,.21,1.09,37.07,37.07,0,0,1,.75,3.64c0.27,1.87.06,2.59-.16,2.87a0.46,0.46,0,0,1-.4.18,0.61,0.61,0,0,1-.48-0.2c-0.59-.64-0.44-2.63-0.33-4.09s-0.06-2.24-.34-2.51a1.1,1.1,0,0,0-.75-0.18s0.17,0.63.16,0.62c0.5,0,.42,1.22.36,2-0.13,1.74-.28,3.71.48,4.53a1.18,1.18,0,0,0,.9.38,1,1,0,0,0,.85-0.41C18.64,16.7,18.06,13.77,17.31,10.75Z"/></svg>