<?xml version="1.0" encoding="utf-8"?>
<!-- Generator: Adobe Illustrator 19.1.0, SVG Export Plug-In . SVG Version: 6.00 Build 0)  -->
<svg version="1.2" baseProfile="tiny" id="Layer_1" xmlns="http://www.w3.org/2000/svg" xmlns:xlink="http://www.w3.org/1999/xlink"
	 x="0px" y="0px" viewBox="0 0 13.6 10.3" xml:space="preserve">
<g id="Ft1FJm.tif_2_">
	<g>
		<path fill="#FFFFFF" d="M13.6,0c0,3.4,0,6.9,0,10.3c-4.5,0-9.1,0-13.6,0C0,6.9,0,3.4,0,0C4.5,0,9.1,0,13.6,0z M1.6,1
			C1.7,1,1.7,1,1.6,1c1.6,1.7,3.2,3.2,4.8,4.8C6.6,6,7,6,7.3,5.8c1.6-1.6,3.1-3.1,4.7-4.7C12,1,12,1,12.1,1C8.6,1,5.1,1,1.6,1z
			 M1.6,9.3c3.5,0,6.9,0,10.4,0C10.9,8.2,9.7,7,8.6,5.8C8.4,6,8.2,6.3,8,6.5C7.8,6.6,7.6,6.8,7.4,6.8C6.7,7,6.2,6.9,5.7,6.5
			C5.5,6.2,5.3,6,5,5.8C3.9,7,2.8,8.1,1.6,9.3z M1,8.6c1.2-1.2,2.3-2.4,3.4-3.5C3.2,4,2.1,2.8,1,1.6C1,4,1,6.3,1,8.6z M12.7,1.8
			C11.5,2.9,10.4,4,9.3,5.1c1.1,1.2,2.3,2.3,3.4,3.5C12.7,6.3,12.7,4,12.7,1.8z"/>
	</g>
</g>
</svg>
