<?xml version="1.0" encoding="utf-8"?>
<!-- Generator: Adobe Illustrator 19.1.0, SVG Export Plug-In . SVG Version: 6.00 Build 0)  -->
<svg version="1.2" baseProfile="tiny" id="Layer_1" xmlns="http://www.w3.org/2000/svg" xmlns:xlink="http://www.w3.org/1999/xlink"
	 x="0px" y="0px" viewBox="0 0 9 8.3" xml:space="preserve">
<path fill="#FFFFFF" d="M2,8.3H0.2V2.7H2V8.3z M1.1,1.9L1.1,1.9C0.4,1.9,0,1.5,0,1c0-0.6,0.4-1,1.1-1c0.6,0,1,0.4,1.1,1
	C2.1,1.5,1.7,1.9,1.1,1.9z M9,8.3H7V5.4c0-0.8-0.3-1.3-1-1.3c-0.5,0-0.8,0.4-0.9,0.7C5,4.9,5,5.1,5,5.2v3h-2c0,0,0-5.1,0-5.6h2v0.9
	c0.1-0.4,0.7-0.9,1.8-0.9C8,2.6,9,3.4,9,5.1V8.3z"/>
</svg>
