<?xml version="1.0" encoding="utf-8"?>
<!-- Generator: Adobe Illustrator 19.1.0, SVG Export Plug-In . SVG Version: 6.00 Build 0)  -->
<svg version="1.2" baseProfile="tiny" id="Layer_1" xmlns="http://www.w3.org/2000/svg" xmlns:xlink="http://www.w3.org/1999/xlink"
	 x="0px" y="0px" viewBox="0 0 9.5 8.3" xml:space="preserve">
<g>
	<g>
		<path fill="#FFFFFF" d="M9.5,1C9.1,1.2,8.8,1.3,8.4,1.3c0.4-0.3,0.7-0.7,0.9-1.2C8.8,0.4,8.4,0.6,8,0.7C7.6,0.3,7.1,0,6.6,0
			C5.5,0,4.6,0.9,4.6,2.1c0,0.2,0,0.3,0,0.5c-1.6-0.1-3.1-0.9-4-2.2C0.5,0.7,0.4,1.1,0.4,1.4c0,0.7,0.3,1.4,0.9,1.7
			c-0.3,0-0.6-0.1-0.9-0.3c0,0,0,0,0,0c0,1,0.7,1.9,1.6,2.1C1.8,5,1.6,5.1,1.4,5.1c-0.1,0-0.2,0-0.4,0c0.2,0.8,1,1.4,1.8,1.5
			C2.2,7.1,1.4,7.4,0.5,7.4c-0.2,0-0.3,0-0.5,0C0.9,8,1.9,8.3,3,8.3c3.6,0,5.5-3.2,5.5-6c0-0.1,0-0.2,0-0.3C8.9,1.8,9.2,1.4,9.5,1z"
			/>
	</g>
</g>
</svg>
