<svg id="Layer_1" data-name="Layer 1" xmlns="http://www.w3.org/2000/svg" viewBox="0 0 24 24"><defs><style>.cls-1{fill:#fff;}.cls-2{fill:#8e68ad;}</style></defs><title>biomass_unselected</title><rect class="cls-1" x="0.5" y="0.5" width="23" height="23"/><path class="cls-2" d="M23,1V23H1V1H23m1-1H0V24H24V0h0Z" transform="translate(0 0)"/><path class="cls-2" d="M13.42,14.29A49.25,49.25,0,0,1,9.75,9.86L9.22,9.31A13.83,13.83,0,0,0,3.77,5.48S8,8.66,8.15,9.34a7.22,7.22,0,0,1-2.55-.4C4.78,8.62,3.15,7.37,2.92,6.11A10.14,10.14,0,0,0,2.64,4.8c-0.15-.54-0.11-0.12.26-0.14a5.51,5.51,0,0,1,2.19,0A5.4,5.4,0,0,1,8.76,6.74C10.09,8.28,9.61,9,9.61,9l0.53,0.6a59.35,59.35,0,0,0,3.8,4.6l0.23,0.15a32.94,32.94,0,0,1,4.33,2A13.72,13.72,0,0,1,18.13,15c0.18-4.3-2.14-9.1-2.14-9.1,1.64,3.22.64,8.28,0.64,8.28-1-.86-3.66-4.72-2.93-6.6a13.23,13.23,0,0,1,1.17-2.33A5.13,5.13,0,0,0,15.35,4c0.06-.4.11-0.3,0.46,0a15.58,15.58,0,0,1,3.9,3.46,6.71,6.71,0,0,1,0,7.14,1.57,1.57,0,0,1-1,.57L18.92,16l0.36,0.72C19.46,16.84,22,19.47,22,19.47a4.36,4.36,0,0,1,0,.84A19,19,0,0,0,18.78,17a31.77,31.77,0,0,0-5-2.17l-1.13.46s0.16-.09-0.5,1.25c-1.1,2.23-3.21,2.67-5.35,2.9s-3.94-1.07-4.42-1.08-0.5,0-.24-0.44,0.24-.52,1-2.17a5.76,5.76,0,0,1,5.53-3.22,7.22,7.22,0,0,1,2.76.82,77.06,77.06,0,0,1-7.63,4.07s6.59-2.3,8.74-2.7Z" transform="translate(0 0)"/></svg>