<svg id="Layer_1" data-name="Layer 1" xmlns="http://www.w3.org/2000/svg" viewBox="0 0 24 24" width='30' height='30'><defs><style>.cls-1{fill:#3cc;}.cls-2{fill:#fff;}</style></defs><title>electricity_selected</title><rect class="cls-1" width="24" height="24"/><rect class="cls-2" x="10.9" y="11.49" width="2" height="11"/><path class="cls-2" d="M16.33,9.18v1.7c0,1.59-1.44,2.63-4.33,2.63s-4.33-1-4.33-2.63V9.18h8.67Z"/><path class="cls-2" d="M8.78,5.92h1.93V3.07a1,1,0,0,0-1-1h0a1,1,0,0,0-1,1V5.92Z"/><path class="cls-2" d="M13.29,5.92h1.93V3.07a1,1,0,0,0-1-1h0a1,1,0,0,0-1,1V5.92Z"/><rect class="cls-2" x="6.93" y="6.49" width="10.15" height="1.93" rx="0.72" ry="0.72"/></svg>