<svg id="Layer_1" data-name="Layer 1" xmlns="http://www.w3.org/2000/svg" viewBox="0 0 24 24"><defs><style>.cls-1{fill:#333;}.cls-2{fill:#fff;}</style></defs><title>hydro_selectedR</title><rect class="cls-1" width="24" height="24"/><path class="cls-2" d="M16,12.5S14.75,16,12.1,16,8.21,12.5,8.21,12.5,7.12,16,4,16v1.46a4.25,4.25,0,0,0,4.21-2.19,4.47,4.47,0,0,0,7.77,0,4.23,4.23,0,0,0,4,2.19V16C17,16,16,12.5,16,12.5Z"/><path class="cls-2" d="M16,6.5S14.75,10,12.1,10,8.21,6.5,8.21,6.5,7.12,10,4,10v1.46A4.25,4.25,0,0,0,8.21,9.24a4.47,4.47,0,0,0,7.77,0,4.23,4.23,0,0,0,4,2.19V10C17,10,16,6.5,16,6.5Z"/></svg>