<svg id="Layer_1" data-name="Layer 1" xmlns="http://www.w3.org/2000/svg" viewBox="0 0 24 24"><defs><style>.cls-1{fill:#fff;}.cls-2{fill:#333;}</style></defs><title>hydro_unselectedR</title><rect class="cls-1" x="0.5" y="0.5" width="23" height="23"/><path class="cls-2" d="M23,1V23H1V1H23m1-1H0V24H24V0h0Z" transform="translate(0 0)"/><path class="cls-2" d="M16,12.5S14.75,16,12.1,16,8.21,12.5,8.21,12.5,7.12,16,4,16v1.46a4.25,4.25,0,0,0,4.21-2.19,4.47,4.47,0,0,0,7.77,0,4.23,4.23,0,0,0,4,2.19V16C17,16,16,12.5,16,12.5Z" transform="translate(0 0)"/><path class="cls-2" d="M16,6.5S14.75,10,12.1,10,8.21,6.5,8.21,6.5,7.12,10,4,10v1.46A4.25,4.25,0,0,0,8.21,9.24a4.47,4.47,0,0,0,7.77,0,4.23,4.23,0,0,0,4,2.19V10C17,10,16,6.5,16,6.5Z" transform="translate(0 0)"/></svg>