<svg id="Layer_1" data-name="Layer 1" xmlns="http://www.w3.org/2000/svg" viewBox="0 0 24 24"><defs><style>.cls-1{fill:#333;}</style></defs><title>naturalGas_unselectedR</title><path class="cls-1" d="M23,1V23H1V1H23m1-1H0V24H24V0h0Z" transform="translate(0 0)"/><path class="cls-1" d="M12,21.91C8.91,21,6.83,16.55,6.83,14.64S12,2.53,12,2.53s5.17,10.2,5.17,12.11S15.09,21,12,21.91Zm2.59-4.32C14.59,16.64,12,12,12,12s-2.59,4.67-2.59,5.62A4.1,4.1,0,0,0,12,20.91,4.1,4.1,0,0,0,14.59,17.59Z" transform="translate(0 0)"/></svg>