<svg id="Layer_1" data-name="Layer 1" xmlns="http://www.w3.org/2000/svg" viewBox="0 0 24 24"><defs><style>.cls-1{fill:#fff;}.cls-2{fill:#f63;}</style></defs><title>naturalGas_unselected</title><rect class="cls-1" x="0.48" y="0.44" width="23.04" height="23.04"/><path class="cls-2" d="M23,1V23H1V1H23m1-1H0V24H24V0h0Z"/><path class="cls-2" d="M12,21.9c-3.1-.9-5.2-5.4-5.2-7.3S12,2.5,12,2.5s5.2,10.2,5.2,12.1S15.1,21,12,21.9Zm2.6-4.3c0-1-2.6-5.6-2.6-5.6s-2.6,4.7-2.6,5.6A3.89,3.89,0,0,0,12,20.9,4.2,4.2,0,0,0,14.6,17.6Z"/></svg>