<svg id="Layer_1" data-name="Layer 1" xmlns="http://www.w3.org/2000/svg" viewBox="0 0 24 24" width='30' height='30'><defs><style>.cls-1{fill:#cccb31;}.cls-2{fill:#fff;}</style></defs><title>nuclear_selected</title><rect class="cls-1" width="24" height="24"/><path class="cls-2" d="M14.74,12.07c0,5.14-1.25,9.3-2.79,9.3s-2.79-4.16-2.79-9.3,1.25-9.3,2.79-9.3S14.74,6.93,14.74,12.07ZM12,4.41c-1.41,0-2.35,3-2.35,7.66s0.93,7.66,2.35,7.66,2.35-3,2.35-7.66S13.36,4.41,12,4.41Z"/><path class="cls-2" d="M13.33,9.63c4.48,2.5,7.51,5.63,6.76,7s-5,.41-9.48-2.09-7.51-5.63-6.76-7S8.85,7.12,13.33,9.63Zm-8-1.29c-0.69,1.24,1.43,3.49,5.54,5.78S18,17,18.66,15.8,17.22,12.31,13.11,10,6,7.1,5.28,8.33Z"/><path class="cls-2" d="M20.09,7.53c0.75,1.35-2.27,4.47-6.76,7S4.6,17.95,3.85,16.6s2.27-4.47,6.76-7S19.34,6.19,20.09,7.53ZM10.83,10C6.72,12.31,4.6,14.56,5.28,15.8S9,16.41,13.11,14.12s6.23-4.55,5.54-5.78S14.94,7.73,10.83,10Z"/><circle class="cls-2" cx="11.95" cy="12.07" r="1.48"/></svg>