<svg id="Layer_1" data-name="Layer 1" xmlns="http://www.w3.org/2000/svg" viewBox="0 0 20 20"><defs><style>.cls-1{fill:#339;}</style></defs><title>questionMark_ElectricityHighlighted</title><path class="cls-1" d="M10,0A10,10,0,1,0,20,10,10,10,0,0,0,10,0Zm4.9,6.6a5,5,0,0,1-.2,1.2,4.05,4.05,0,0,1-.5.9,5,5,0,0,1-.7.8,7.27,7.27,0,0,1-.9.8,2.36,2.36,0,0,0-.5.5,1.51,1.51,0,0,1-.4.4,1,1,0,0,0-.3.4,0.85,0.85,0,0,0-.2.6v0.2h-3V12a3.55,3.55,0,0,1,.2-1,4.35,4.35,0,0,1,.4-0.7,3.51,3.51,0,0,1,.5-0.8A4.35,4.35,0,0,1,10,8.9l0.7-.6,0.6-.6a1.08,1.08,0,0,0,.2-0.8,1.16,1.16,0,0,0-.4-1A1.88,1.88,0,0,0,10,5.4,1.31,1.31,0,0,0,8.8,6a2.11,2.11,0,0,0-.5,1.3L5.1,7a5.31,5.31,0,0,1,.6-1.9A7.55,7.55,0,0,1,6.8,3.7a5.48,5.48,0,0,1,1.5-.8,5.66,5.66,0,0,1,1.8-.3,11,11,0,0,1,1.8.2,5.3,5.3,0,0,1,1.5.8,4.26,4.26,0,0,1,1.1,1.2A3.42,3.42,0,0,1,14.9,6.6Zm-3,8.9a2,2,0,0,1-.6,1.4,1.74,1.74,0,0,1-1.4.5,2.2,2.2,0,0,1-.8-0.1,2.36,2.36,0,0,0-.5-0.5,2.09,2.09,0,0,1-.4-0.6A1.45,1.45,0,0,1,8,15.5a1.48,1.48,0,0,1,.1-0.7,2.09,2.09,0,0,1,.4-0.6c0.3-.2.5-0.4,0.7-0.5a1.88,1.88,0,0,1,.8-0.2,2.35,2.35,0,0,1,.8.2,1.84,1.84,0,0,1,1,1A2.2,2.2,0,0,1,11.9,15.5Z"/></svg>